<?xml version="1.0" encoding="UTF-8" standalone="no"?>
<!-- Created with Inkscape (http://www.inkscape.org/) -->

<svg
   width="2356"
   height="2385"
   viewBox="0 0 623.35834 631.03126"
   version="1.1"
   id="svg1"
   xml:space="preserve"
   inkscape:version="1.4 (e7c3feb100, 2024-10-09)"
   sodipodi:docname="AJZ.svg"
   xmlns:inkscape="http://www.inkscape.org/namespaces/inkscape"
   xmlns:sodipodi="http://sodipodi.sourceforge.net/DTD/sodipodi-0.dtd"
   xmlns="http://www.w3.org/2000/svg"
   xmlns:svg="http://www.w3.org/2000/svg"><sodipodi:namedview
     id="namedview1"
     pagecolor="#ffffff"
     bordercolor="#666666"
     borderopacity="1.0"
     inkscape:showpageshadow="2"
     inkscape:pageopacity="0.0"
     inkscape:pagecheckerboard="0"
     inkscape:deskcolor="#d1d1d1"
     inkscape:document-units="mm"
     showguides="true"
     inkscape:lockguides="false"
     inkscape:zoom="0.27577164"
     inkscape:cx="534.86282"
     inkscape:cy="1280.0446"
     inkscape:window-width="2560"
     inkscape:window-height="1415"
     inkscape:window-x="2560"
     inkscape:window-y="0"
     inkscape:window-maximized="1"
     inkscape:current-layer="layer1" /><defs
     id="defs1" /><g
     inkscape:groupmode="layer"
     id="layer2"
     inkscape:label="BG" /><g
     inkscape:label="Layer 1"
     inkscape:groupmode="layer"
     id="layer1"
     transform="translate(258.21216,182.21855)"><path
       style="fill:#ffffff;stroke:none;stroke-width:0.264583px;stroke-linecap:butt;stroke-linejoin:miter;stroke-opacity:1"
       d="m 208.20076,-146.94077 28.45596,12.91053 c 0,0 8.23295,-3.90093 17.3373,0.65784 8.45276,4.23251 15.55447,7.02814 32.90332,19.33494 15.82953,11.22904 42.0037,41.897522 41.72275,42.740383 0.40477,0.404767 8.92172,19.776421 9.15866,34.260149 0.25618,15.66042 -2.37448,34.5993588 -4.07051,38.3306611 -1.69606,3.7313049 1.35684,-11.5331181 22.72702,59.3616459 21.37021,70.894751 -1.01761,162.820501 -8.48024,176.049671 -7.4626,13.22916 -44.77562,135.68375 -188.93962,191.99254 -144.16399,56.30875 -252.371794,-15.26443 -252.371794,-15.26443 -20.461576,-2.83631 -28.324626,3.73062 -70.216346,-23.40546 -49.86892,-43.12063 -114.3897,-101.45183 -76.9629,-145.37678 7.75789,-9.10484 -46.34558,-100.8997 4.8518,-232.262627 45.5417,-116.851463 160.237214,-176.328533 213.222211,-185.108983 49.29909,-8.16964 117.425851,-25.64001 230.662389,25.77992 z"
       id="path2"
       sodipodi:nodetypes="ccsscsssssccsssc" /><path
       style="fill:#000000;stroke:none"
       d="m 33.755552,432.55443 c -5.876242,-0.37359 -10.950684,-0.80654 -14.552083,-1.24156 -1.309688,-0.1582 -3.33375,-0.38574 -4.497917,-0.50564 -2.281103,-0.23493 -7.8000564,-1.03186 -11.6416668,-1.68103 -1.3096875,-0.22132 -3.50092432,-0.59154 -4.8694151,-0.82273 -1.3684908,-0.23118 -3.4520845,-0.65365 -4.6302084,-0.9388 -1.1781238,-0.28516 -3.283132,-0.69285 -4.6777957,-0.90597 -1.394664,-0.21312 -3.299664,-0.62693 -4.233334,-0.91958 -0.933669,-0.29265 -2.028826,-0.53363 -2.433683,-0.53551 -0.404856,-0.002 -1.136369,-0.17065 -1.625584,-0.37506 -0.489215,-0.20441 -2.287953,-0.68537 -3.997196,-1.0688 -1.709243,-0.38343 -3.314127,-0.80761 -3.566409,-0.94263 -0.252282,-0.13502 -1.039329,-0.37156 -1.748993,-0.52566 -0.709664,-0.15409 -2.30233,-0.58051 -3.539257,-0.94759 -1.236927,-0.36708 -3.082396,-0.91292 -4.101042,-1.21299 -6.321194,-1.86204 -23.213245,-8.01397 -28.178125,-10.26223 -0.945885,-0.42832 -2.969948,-1.33588 -4.497917,-2.01679 -1.527968,-0.68091 -3.909218,-1.74454 -5.291666,-2.36362 -1.382448,-0.61908 -5.238176,-2.44981 -8.568285,-4.06828 -3.330108,-1.61847 -6.169615,-2.94268 -6.310014,-2.94268 -0.140399,0 -0.630452,-0.16977 -1.089007,-0.37726 -0.458555,-0.2075 -1.845767,-0.63957 -3.082694,-0.96017 -1.97,-0.51059 -3.282748,-0.60887 -10.58333,-0.79231 -7.38587,-0.18559 -10.61089,-0.45545 -11.08282,-0.92738 -0.0803,-0.0804 0.11208,-0.64576 0.42763,-1.25647 1.76004,-3.40634 1.99947,-8.40635 0.5663,-11.82599 -0.56028,-1.33686 -1.20781,-2.44888 -3.57821,-6.14491 -2.39218,-3.73001 -6.523,-11.57066 -8.26264,-15.68322 -0.49246,-1.16416 -1.30666,-3.06916 -1.80935,-4.23333 -1.11446,-2.58093 -4.09572,-11.29099 -4.98086,-14.55208 -2.57964,-9.5041 -4.55159,-20.10418 -5.4143,-29.10417 -0.16739,-1.74625 -0.41158,-4.00844 -0.54263,-5.02708 -1.18398,-9.20251 -1.11802,-30.04552 0.0951,-30.05083 0.11601,-5.1e-4 1.76935,1.81963 3.6741,4.04474 1.90475,2.22512 4.07923,4.70051 4.83216,5.50088 0.75294,0.80036 1.82293,2.02892 2.37776,2.73014 4.21918,5.33236 22.11897,22.65022 29.089518,28.1438 10.729822,8.45633 23.758438,17.21903 34.937325,23.49793 2.07267,1.16417 4.805431,2.83105 6.072803,3.70417 2.556459,1.76121 4.143337,2.81164 5.297591,3.50674 0.421955,0.25411 1.553048,0.97945 2.513542,1.61188 0.960494,0.63243 2.639321,1.63404 3.730728,2.22578 1.091406,0.59175 2.178127,1.2404 2.414936,1.44145 0.595179,0.5053 1.599023,1.03295 9.549425,5.0195 8.462782,4.24346 15.244486,7.15499 22.696055,9.7439 4.9990186,1.73681 13.3151965,4.24277 15.3458338,4.62423 0.6548438,0.12302 3.5718751,0.81357 6.4822922,1.53455 2.910416,0.72099 6.184635,1.44996 7.276041,1.61994 1.091407,0.16997 2.520157,0.43488 3.175,0.58869 2.06572,0.48517 12.958074,1.87721 18.25625,2.33314 7.699221,0.66255 12.289172,0.84504 21.034376,0.83631 11.710424,-0.0117 21.476752,-0.63866 29.033644,-1.86385 1.852983,-0.30042 3.817515,-0.55048 4.365625,-0.55568 0.984979,-0.009 2.248503,-0.22526 10.521565,-1.79793 6.27305,-1.19247 7.76677,-1.52449 16.8181,-3.73822 4.32232,-1.05713 18.27106,-5.57368 23.13398,-7.49069 1.30969,-0.51629 3.45282,-1.35363 4.7625,-1.86076 4.18205,-1.61933 5.12743,-2.01695 7.74985,-3.25958 1.4129,-0.6695 3.22375,-1.48396 4.02411,-1.80992 1.91358,-0.77934 15.94277,-8.1453 18.65313,-9.79375 1.16416,-0.70804 3.48588,-2.12045 5.15937,-3.13869 5.35087,-3.25573 14.32662,-9.304 16.94556,-11.41871 0.9011,-0.7276 2.07276,-1.62057 2.60369,-1.98437 0.53094,-0.3638 1.844,-1.37583 2.91791,-2.24896 1.07392,-0.87312 2.32197,-1.88212 2.77344,-2.2422 6.24021,-4.97709 16.77588,-14.88118 22.2017,-20.87082 3.92066,-4.32806 9.22492,-10.48671 11.03283,-12.80998 0.65363,-0.83994 1.59221,-2.03057 2.08573,-2.64583 0.49352,-0.61527 1.20779,-1.59492 1.58726,-2.177 0.37947,-0.58209 1.21729,-1.71318 1.86184,-2.51354 0.64454,-0.80037 1.80388,-2.40771 2.5763,-3.57188 0.77242,-1.16417 1.62837,-2.41432 1.90212,-2.77812 0.97581,-1.29685 6.51678,-10.21536 8.26554,-13.30387 0.64123,-1.13249 1.56466,-2.73983 2.05206,-3.57188 3.93913,-6.72441 12.78347,-25.97896 14.73197,-32.07217 0.25594,-0.80037 0.75378,-2.11005 1.10631,-2.91042 0.89247,-2.02623 5.39633,-15.81246 6.52603,-19.97604 0.51329,-1.89177 1.36769,-5.04693 1.89867,-7.01146 0.53098,-1.96453 1.25303,-4.5839 1.60456,-5.82083 0.35153,-1.23693 0.94903,-3.61818 1.32779,-5.29167 0.37875,-1.67349 1.16367,-5.06677 1.74426,-7.54062 0.58058,-2.47386 1.21236,-5.39089 1.40395,-6.48229 0.19158,-1.09141 0.71779,-3.71079 1.16935,-5.82084 0.45156,-2.11005 1.00071,-5.02708 1.22033,-6.48229 0.21963,-1.45521 0.56184,-3.36021 0.76048,-4.23333 0.19864,-0.87313 0.49473,-2.65907 0.65799,-3.96875 0.16326,-1.30969 0.41814,-3.33375 0.56639,-4.49792 0.89553,-7.03208 1.25813,-11.80102 1.61366,-21.22249 0.32038,-8.48996 0.31837,-8.56976 -0.5267,-20.90209 -0.90395,-13.191625 -1.06524,-14.28057 -2.58714,-17.467307 -1.76663,-3.69917 -6.03746,-7.124411 -10.05586,-8.064881 l -1.35178,-0.316371 3.60446,-3.584264 c 3.38368,-3.364715 10.72392,-11.398554 12.37765,-13.547239 0.4094,-0.531928 1.63733,-2.114522 2.72874,-3.516876 1.84949,-2.376426 3.93074,-5.214841 4.9573,-6.760774 0.24158,-0.363802 1.15978,-1.671686 2.04044,-2.906409 1.98866,-2.788168 3.58919,-5.358325 7.58172,-12.174841 1.85065,-3.159661 6.85179,-14.176889 6.85179,-15.094119 0,-0.644648 0.86715,-2.409505 1.40199,-2.853386 0.41186,-0.341815 0.48447,-0.213145 1.31868,2.337089 0.21421,0.654843 0.63721,1.785937 0.94,2.513541 0.89508,2.150894 2.60941,6.767321 3.095,8.334375 0.24802,0.800365 0.78476,2.407709 1.19276,3.571875 0.86582,2.470447 1.73032,5.065719 2.24742,6.746875 0.20142,0.654844 0.68223,2.202657 1.06847,3.439584 0.38624,1.236927 0.93146,3.141927 1.2116,4.233333 0.66599,2.594678 1.1374,4.299503 1.68272,6.085417 0.50386,1.650146 1.43718,5.57591 2.39031,10.054166 0.35617,1.67349 0.76589,3.340365 0.91049,3.704167 0.33613,0.845702 2.37976,11.545456 2.38235,12.473185 0.001,0.384574 0.34882,2.58723 0.77277,4.894791 0.42394,2.307561 0.91082,5.445722 1.08195,6.973691 0.17112,1.527968 0.41495,3.373438 0.54183,4.101038 0.12688,0.72761 0.30166,2.45401 0.3884,3.83646 0.0867,1.38245 0.32588,4.35901 0.53142,6.61459 0.7399,8.11967 0.99278,16.35987 0.8404,27.38437 -0.0825,5.96635 -0.27566,12.1576 -0.42932,13.75833 -0.15366,1.60073 -0.46144,5.11308 -0.68397,7.80521 -0.22253,2.69214 -0.5155,5.72823 -0.65104,6.74688 -0.13555,1.01864 -0.37677,2.92364 -0.53604,4.23333 -0.15928,1.30969 -0.63718,4.46484 -1.06202,7.01146 -0.42483,2.54661 -0.84125,5.28505 -0.92538,6.08542 -0.0841,0.80036 -0.37913,2.46723 -0.65557,3.70416 -0.27643,1.23693 -0.62567,2.9038 -0.77608,3.70417 -0.66215,3.52342 -1.81607,8.70789 -2.20835,9.92187 -0.23511,0.72761 -0.6841,2.39448 -0.99775,3.70417 -0.31365,1.30969 -0.84479,3.27422 -1.18031,4.36563 -1.72293,5.60443 -2.52885,8.36426 -2.52259,8.63845 0.0103,0.44907 -5.66205,16.75877 -6.17029,17.7416 -0.23908,0.46234 -0.89727,2.1276 -1.46263,3.70059 -0.56536,1.57299 -1.47073,3.81248 -2.01193,4.97665 -0.5412,1.16416 -1.25904,2.83104 -1.59519,3.70416 -1.72947,4.49205 -9.65825,20.78666 -12.42374,25.5323 -0.46641,0.80036 -1.54237,2.70536 -2.39102,4.23333 -3.95697,7.12437 -9.55696,16.05224 -13.56049,21.61901 -0.54522,0.75812 -1.76522,2.47012 -2.7111,3.80445 -0.94589,1.33434 -2.26122,3.09531 -2.92296,3.91328 -0.66173,0.81797 -2.06423,2.69682 -3.11665,4.17523 -6.38028,8.96281 -17.14557,21.40601 -27.1656,31.39972 -4.63544,4.62327 -11.56355,11.11939 -14.33849,13.44444 -0.75564,0.63314 -2.44889,2.10366 -3.76277,3.26783 -2.69346,2.38655 -3.27663,2.86052 -10.00279,8.12974 -6.21349,4.86759 -10.46505,7.98883 -16.49672,12.11088 -0.74528,0.50932 -2.0878,1.46645 -2.98339,2.12694 -1.68946,1.24597 -3.88559,2.62641 -10.62418,6.67813 -6.33826,3.81101 -8.06859,4.81675 -10.31875,5.99772 -1.16416,0.611 -3.12869,1.68651 -4.36562,2.39003 -3.09333,1.75938 -14.4443,7.39221 -18.78542,9.32212 -3.89322,1.7308 -7.75607,3.32975 -12.34759,5.11103 -1.62519,0.6305 -3.29206,1.31739 -3.70417,1.52643 -0.99243,0.50342 -13.7904,4.94748 -17.15345,5.95649 -9.40939,2.82307 -10.99769,3.25484 -17.59479,4.78299 -10.42372,2.41455 -13.8794,3.17594 -15.21354,3.35204 -0.72761,0.096 -2.27542,0.38985 -3.439584,0.65291 -1.164167,0.26306 -3.307292,0.61439 -4.7625,0.78073 -1.455209,0.16634 -3.038877,0.40637 -3.519264,0.53339 -0.778766,0.20592 -13.422263,1.59539 -21.880736,2.40461 -4.691467,0.44883 -29.528295,0.53448 -35.983334,0.12409 z m 6.86992,-4.14274 c 3.656773,-0.68026 7.033037,-3.77887 7.543701,-6.92332 0.41941,-2.58255 -0.48387,-4.92667 -2.683002,-6.9627 -1.282916,-1.18777 -2.065702,-1.50294 -8.132119,-3.27418 -1.513325,-0.44186 -2.86455,-0.80337 -3.002722,-0.80337 -0.238746,0 -1.716018,-0.5976 -2.590328,-1.04787 -0.223877,-0.11529 -0.897883,-0.29255 -1.497791,-0.39391 -1.158892,-0.19579 -2.199908,-1.04661 -1.779845,-1.45465 0.261827,-0.25434 5.124661,0.30512 6.725648,0.77378 1.375085,0.40252 5.155087,0.33546 6.222159,-0.11039 2.572283,-1.07477 2.523304,-4.48463 -0.11068,-7.7054 -0.960487,-1.17447 -1.460924,-1.47999 -4.956716,-3.02615 -3.706966,-1.63956 -4.807895,-2.38125 -3.534612,-2.38125 0.315105,0 1.426355,0.29133 2.469444,0.6474 2.254054,0.76945 6.528985,1.34342 9.834026,1.32036 3.608113,-0.0252 4.946303,-0.87079 6.463623,-4.08442 1.510645,-3.1995 0.884469,-5.82878 -1.705278,-7.16038 -2.023663,-1.04053 -3.03378,-1.26145 -10.843761,-2.3716 -16.058687,-2.28267 -22.320706,-2.7233 -24.341667,-1.71282 -0.985363,0.49268 -1.116789,0.69785 -1.906148,2.9756 -1.030309,2.97303 -1.608906,6.08409 -2.9880242,16.06633 -1.1875187,8.59541 -1.3596936,12.78818 -0.6398018,15.5803 1.314169,5.09705 5.438918,9.042 10.428766,9.97419 0.945885,0.17671 3.148541,0.61028 4.894791,0.96348 2.9111,0.58882 4.046622,0.76317 9.128125,1.40157 1.843516,0.2316 4.870373,0.10599 7.002212,-0.2906 z m 32.651095,-1.83691 c 3.210583,-0.52096 4.676108,-1.77062 5.638083,-4.80762 0.827686,-2.61305 1.527803,-7.46625 1.556535,-10.78988 0.02211,-2.55777 0.07644,-2.93729 0.340863,-2.38125 0.568752,1.19598 2.064558,3.43959 2.293161,3.43959 0.123232,0 0.307747,0.26789 0.410031,0.59531 0.4226,1.35277 4.754409,5.97825 8.351179,8.91733 3.240249,2.64774 4.217952,2.94765 10.151631,3.114 4.08301,0.11447 6.02128,-0.0694 9.78959,-0.92843 2.85671,-0.65125 5.12213,-2.4296 5.72105,-4.49102 0.70892,-2.44 0.34166,-15.40985 -0.56744,-20.03949 -1.27949,-6.5158 -1.68441,-8.21239 -2.39961,-10.05416 -0.45207,-1.16417 -0.9688,-2.29526 -1.1483,-2.51354 -0.1795,-0.21829 -0.51864,-0.81836 -0.75364,-1.3335 -0.61066,-1.3386 -3.12173,-3.83481 -4.46807,-4.44163 -1.53489,-0.6918 -6.0975,-1.11075 -8.666769,-0.79581 -2.308051,0.28293 -5.047031,1.2928 -6.420981,2.36744 -0.53717,0.42015 -1.092599,0.76391 -1.234285,0.76391 -0.548398,0 -2.351794,2.42128 -2.771644,3.72127 -0.618841,1.91613 -0.557796,3.07587 0.375862,7.14066 1.531067,6.66569 1.965176,10.17748 1.222873,9.89263 -0.187636,-0.072 -0.502279,-0.69334 -0.699205,-1.38076 -0.196927,-0.68741 -0.513691,-1.5475 -0.703922,-1.9113 -0.190231,-0.3638 -0.790658,-1.61396 -1.334284,-2.77812 -1.866993,-3.99815 -3.731669,-6.69153 -6.594314,-9.525 -1.948157,-1.9283 -2.36439,-2.20497 -4.677217,-3.10886 -1.396315,-0.5457 -2.738797,-0.99218 -2.983294,-0.99218 -0.244496,0 -1.117707,-0.2045 -1.940468,-0.45444 -1.049427,-0.3188 -2.4436,-0.45645 -4.67093,-0.46116 -3.034664,-0.006 -3.245168,0.0294 -4.7625,0.80991 -1.051358,0.54084 -1.855571,1.19621 -2.38125,1.94054 l -0.79375,1.12391 -0.0073,5.06905 c -0.0056,3.88723 -0.200516,6.79629 -0.835879,12.47739 -1.483817,13.26758 -1.487501,13.3233 -1.015434,15.35882 0.648304,2.79543 1.927806,4.25244 4.613129,5.25314 3.568016,1.32963 7.816183,1.77933 11.366546,1.20325 z m -83.648296,-6.22859 c 3.7085583,-0.54696 5.2431605,-0.95519 6.8391397,-1.81932 1.2095634,-0.6549 1.4137907,-0.92243 2.79782783,-3.66501 1.93516937,-3.83469 2.25206817,-4.65712 2.74911397,-7.13465 0.7487644,-3.73221 0.2920575,-11.12377 -0.7892813,-12.7741 -0.96065107,-1.46614 -2.361057,-2.45869 -5.1056736,-3.61869 -4.5742273,-1.93329 -5.0645643,-2.05358 -8.3444466,-2.04716 -3.256298,0.006 -4.757339,0.44014 -5.578092,1.61193 -0.988623,1.41145 -0.01268,4.68778 1.984858,6.66335 1.35349,1.33861 1.715234,2.14485 1.44516,3.22091 -0.212054,0.84489 -1.905366,1.99299 -2.931182,1.9874 -1.099219,-0.006 -2.77269,-1.0091 -3.530676,-2.11635 -0.585264,-0.85494 -0.621529,-1.10486 -0.498502,-3.43555 0.22857,-4.33018 1.274651,-6.86316 3.489467,-8.44941 1.303998,-0.93392 1.343474,-0.94318 3.96875,-0.93092 3.002418,0.014 4.443479,0.34142 7.2763692,1.65313 4.1892104,1.93973 6.96425766,1.71044 9.5285175,-0.78729 5.1845713,-5.05006 4.5012922,-9.25086 -1.98240221,-12.18781 -2.85113899,-1.29149 -7.67531359,-3.03556 -12.61090349,-4.55917 -3.319816,-1.02482 -12.087431,-2.78173 -13.890003,-2.78337 -2.49399,-0.002 -6.346062,1.91275 -7.2518,3.60513 -0.184619,0.34497 -0.440065,0.62721 -0.567658,0.62721 -0.303615,0 -2.164619,4.05169 -3.10812,6.76685 -0.408358,1.17515 -0.954509,2.54437 -1.213668,3.04271 -0.25916,0.49833 -0.821841,1.85856 -1.250402,3.02273 -0.428561,1.16417 -1.132453,3.06917 -1.564204,4.23333 -2.921702,7.87804 -3.362036,10.52558 -2.46428,14.81667 0.50054,2.39248 1.008,3.54663 2.570258,5.84569 2.346685,3.45346 7.819722,6.55074 14.230989,8.05356 3.792702,0.88902 5.043939,1.1187 7.079741,1.29958 3.768199,0.33481 5.705336,0.30341 8.721103,-0.14138 z m 146.803169,-3.56251 c 1.55567,-0.27648 3.12566,-0.76377 5.93557,-1.84226 0.80037,-0.30719 2.34818,-0.86443 3.43958,-1.23831 1.09141,-0.37388 2.81782,-1.15692 3.83646,-1.7401 1.01865,-0.58317 2.09134,-1.19236 2.38376,-1.35375 0.96809,-0.5343 2.62003,-1.86403 3.84261,-3.09312 1.42315,-1.43074 3.16634,-3.52301 3.16634,-3.80042 0,-0.10758 0.22438,-0.48085 0.49862,-0.82949 0.27425,-0.34865 0.92487,-1.79618 1.44585,-3.21674 1.04452,-2.84815 1.04924,-3.5905 0.0475,-7.47762 -2.0921,-8.11846 -5.30167,-13.4878 -9.22229,-15.42813 -3.23881,-1.6029 -6.20423,-2.73402 -9.17389,-3.49924 -2.79276,-0.71965 -9.94111,-0.60815 -14.9664,0.23344 -2.19241,0.36717 -4.4546,0.85562 -5.02708,1.08546 -1.22323,0.49109 -2.09625,1.66228 -2.47551,3.32097 -0.56415,2.46729 -0.23599,7.82834 0.76928,12.5677 0.2778,1.30969 0.70556,3.33375 0.95059,4.49792 0.54543,2.59142 3.38979,13.21264 4.07419,15.21354 0.65365,1.91104 1.34376,3.5392 1.57002,3.70417 0.0998,0.0728 0.45299,0.52104 0.78488,0.99618 1.33847,1.91622 4.22607,2.59183 8.11988,1.8998 z m 4.92356,-15.1498 c -0.43189,-0.45973 -6.92549,-14.44807 -6.92549,-14.91871 0,-0.0437 0.49152,-0.0795 1.09227,-0.0795 1.43457,0 3.78666,1.32703 4.37696,2.46945 0.23811,0.46081 0.57947,0.9569 0.75857,1.10242 0.60371,0.49049 1.92811,4.48331 2.10628,6.35 0.17563,1.84009 -0.17853,5.04715 -0.60438,5.47301 -0.1224,0.1224 -0.48429,-0.0561 -0.80421,-0.39662 z m -195.92471,2.95522 c 0.848144,-0.33032 2.064034,-2.1562 3.85079,-5.78265 1.050299,-2.13172 3.1196,-7.09187 3.532171,-8.46667 0.196516,-0.65484 0.781867,-2.38125 1.300781,-3.83646 0.518914,-1.4552 1.283643,-3.77692 1.699398,-5.15937 0.415755,-1.38245 0.88962,-2.87073 1.053035,-3.30729 0.163414,-0.43657 0.845586,-2.45862 1.515938,-4.49347 1.009645,-3.06476 1.195182,-3.92875 1.081082,-5.03428 -0.253475,-2.45593 -1.788948,-4.85404 -3.869537,-6.04345 -1.994751,-1.14034 -5.849298,-0.71347 -7.62201,0.8441 -1.014811,0.89165 -2.719512,3.14937 -2.719512,3.60175 0,0.49533 -7.405257,13.64522 -8.126108,14.42993 -0.332828,0.36232 -0.605142,0.75995 -0.605142,0.88364 0,0.31521 -1.121023,1.21631 -1.526395,1.22693 -0.627283,0.0164 -0.02701,-1.35714 4.910305,-11.23599 4.604099,-9.21214 4.900401,-9.89497 5.02334,-11.57639 0.185862,-2.542 -0.368303,-3.83 -2.560375,-5.95086 -2.347432,-2.27117 -4.387868,-3.25725 -6.833891,-3.30261 -2.461574,-0.0456 -3.116225,0.43889 -4.840373,3.58252 -1.718811,3.1339 -5.987639,11.67782 -8.286857,16.58589 -0.98847,2.11005 -1.966295,4.15026 -2.172944,4.5338 -0.790352,1.46688 -2.311409,5.19568 -2.791176,6.84244 -0.943319,3.23785 -0.43507,6.79948 1.33734,9.37161 1.036099,1.50359 3.715153,3.76163 7.289985,6.14438 0.582083,0.38798 1.415521,0.95234 1.852083,1.25414 1.275729,0.88192 6.346449,3.51846 7.452258,3.87484 0.557925,0.1798 1.142792,0.42807 1.299704,0.55171 0.156913,0.12363 1.228475,0.40251 2.38125,0.61973 2.276355,0.42894 5.04405,0.36038 6.37486,-0.15792 z m 235.16901,-7.50273 c 1.30969,-0.47055 3.36044,-1.27628 4.55722,-1.79051 2.78407,-1.19626 12.32794,-6.12057 13.4063,-6.91719 0.45204,-0.33395 1.7744,-1.12145 2.93857,-1.75002 3.1349,-1.69263 11.56434,-8.22567 12.12184,-9.39474 0.73601,-1.54345 0.59498,-4.06048 -0.34789,-6.20871 -0.43656,-0.99467 -0.79375,-1.91476 -0.79375,-2.04464 0,-0.48152 -1.75685,-2.02254 -2.87136,-2.51861 -0.8265,-0.36788 -1.42302,-0.46164 -2.11323,-0.33215 -1.11132,0.20848 -3.89763,1.53719 -4.6727,2.22826 -0.29104,0.25951 -2.19604,1.40019 -4.23333,2.53485 -2.03729,1.13467 -4.23995,2.36804 -4.89479,2.74084 -0.69206,0.39398 -1.05362,0.50644 -0.86344,0.26856 0.17995,-0.22509 0.50659,-0.91774 0.72586,-1.53921 0.21927,-0.62148 0.80416,-1.68276 1.29976,-2.35841 0.49559,-0.67565 1.59016,-2.53814 2.43238,-4.13887 0.84221,-1.60073 1.61344,-2.96994 1.71384,-3.0427 0.39005,-0.28267 1.35213,-4.71833 1.3773,-6.35 0.0408,-2.64362 -0.66909,-4.51884 -2.35336,-6.21662 -1.18159,-1.19106 -1.63564,-1.46315 -2.86889,-1.71917 -2.39687,-0.49759 -4.011,-0.20029 -11.25304,2.07268 -1.38244,0.43389 -3.46604,1.16463 -4.6302,1.62387 -1.16417,0.45923 -2.72075,1.05151 -3.45908,1.31617 -0.73832,0.26467 -3.72156,1.67983 -6.62942,3.14482 -4.41044,2.22198 -5.55306,2.92072 -6.89165,4.21436 -2.81211,2.7177 -3.65797,5.98609 -2.46398,9.52086 1.06813,3.16218 2.52365,4.91205 5.36089,6.44498 1.53395,0.82878 1.81238,0.88911 4.02907,0.87298 2.49836,-0.0182 3.33329,-0.27439 5.13236,-1.575 0.95239,-0.68852 2.12024,-0.97453 1.30341,-0.31921 -0.22673,0.18191 -0.63512,0.74745 -0.90753,1.25678 -0.27242,0.50932 -0.6384,1.10621 -0.81329,1.32643 -0.17489,0.22021 -0.87371,1.82165 -1.55293,3.55876 -0.67922,1.7371 -1.40365,3.41585 -1.60984,3.73054 -0.61508,0.93872 -1.19496,4.27784 -1.02648,5.91074 0.62688,6.07557 4.16416,7.85191 10.85138,5.44928 z M -93.948241,385.07472 c 0.678127,-0.2455 1.590146,-0.64002 2.026709,-0.87672 2.156815,-1.16939 4.250332,-4.40486 6.126703,-9.46863 0.512264,-1.38245 1.502611,-3.64464 2.200772,-5.02709 0.698161,-1.38245 2.597438,-5.37104 4.220615,-8.86354 1.623177,-3.4925 3.260945,-7.00484 3.639485,-7.80521 1.027903,-2.17334 1.66751,-4.46475 1.669779,-5.98202 0.0018,-1.21031 -0.113181,-1.48269 -1.098527,-2.6021 -1.21264,-1.37763 -4.145065,-3.80185 -5.383551,-4.45056 -0.435568,-0.22814 -1.467153,-0.93078 -2.29241,-1.56142 -0.825256,-0.63063 -2.113118,-1.50379 -2.861914,-1.94036 -0.748795,-0.43656 -1.799991,-1.13435 -2.335991,-1.55065 -0.535999,-0.4163 -1.569857,-1.16178 -2.297461,-1.65662 -2.337733,-1.58988 -8.664522,-6.68044 -12.539578,-10.08938 -0.7849,-0.69049 -1.92274,-1.61262 -2.52853,-2.04918 -2.56902,-1.85134 -9.53121,-8.19317 -15.30856,-13.94449 -3.4469,-3.43137 -4.47352,-4.0936 -6.00608,-3.87429 -0.36894,0.0528 -0.89712,0.47305 -1.24514,0.99072 -0.52041,0.77409 -0.60382,1.23369 -0.60022,3.30729 0.009,5.24443 0.76759,10.95971 1.89967,14.31452 0.14732,0.43656 0.47133,1.50813 0.72003,2.38125 0.50276,1.76512 2.28875,5.52876 2.84115,5.98721 0.19569,0.16241 0.3558,0.4048 0.3558,0.53865 0,0.33924 0.37654,0.76394 2.64583,2.98425 2.93334,2.87001 4.09165,3.76209 10.04889,7.73919 6.73295,4.49499 7.98648,5.44635 9.94953,7.5512 2.054281,2.20268 2.735892,3.45416 2.279397,4.18513 -0.184428,0.29531 -0.283403,0.62139 -0.219945,0.72461 0.174442,0.28375 -4.148882,8.61905 -4.529222,8.73228 -0.50746,0.15106 -0.40274,-0.91056 0.30774,-3.11974 2.372991,-7.37864 2.32661,-7.65843 -1.97833,-11.93397 -1.80669,-1.79435 -9.94957,-7.6623 -13.99532,-10.08536 -2.71238,-1.62448 -5.22591,-1.06223 -6.47726,1.44888 -0.61518,1.23452 -0.67714,1.65414 -0.67714,4.5859 0,3.12024 0.56331,7.08631 1.08458,7.63604 0.13108,0.13825 0.23833,0.51817 0.23833,0.84428 0,0.32611 0.1014,0.6556 0.22534,0.7322 0.12394,0.0766 0.428,0.66993 0.6757,1.31853 0.54137,1.41753 4.32253,7.89103 5.29529,9.06571 0.3803,0.45925 1.07647,1.47184 1.54704,2.25021 0.89335,1.47765 1.48267,2.27075 3.8983,5.24625 0.80036,0.98587 1.64356,2.13397 1.87376,2.55135 0.49448,0.89654 8.39244,10.34078 9.20561,11.00792 0.30803,0.2527 1.24516,0.69886 2.082525,0.99145 1.702693,0.59496 3.210755,0.52867 5.316604,-0.23369 z M 227.43055,364.95554 c 1.16417,-0.27545 2.53339,-0.61169 3.04271,-0.74721 0.99754,-0.26543 3.90773,-1.68073 5.01095,-2.43696 0.37268,-0.25546 1.36897,-0.90809 2.21398,-1.45028 2.61402,-1.67725 6.24517,-5.01168 9.99452,-9.1778 l 3.59341,-3.99284 0.73703,-2.41572 c 1.23626,-4.05201 0.58469,-6.9823 -1.94935,-8.76682 -1.06458,-0.7497 -1.26899,-0.79368 -3.68311,-0.79245 -2.41976,0.001 -2.64624,0.0506 -4.24983,0.92604 -1.04133,0.5685 -3.12232,2.2498 -5.40183,4.36432 -4.56018,4.23013 -5.35738,4.9123 -6.53035,5.58813 -1.07566,0.61975 -3.35253,1.24378 -3.71677,1.01867 -0.43162,-0.26676 0.47584,-1.6281 1.51225,-2.26864 0.54082,-0.33424 1.54445,-1.08988 2.23029,-1.67918 0.68583,-0.58931 2.11646,-1.78585 3.17915,-2.65898 3.69876,-3.03894 5.17374,-4.70525 5.26954,-5.95312 0.13099,-1.70627 -0.006,-2.12308 -0.86769,-2.64873 -1.57402,-0.9597 -3.73992,-0.60909 -6.15156,0.9958 -2.04209,1.35895 -3.90189,2.63867 -4.63021,3.18601 -1.10951,0.8338 -4.05349,2.36276 -4.89479,2.54211 l -0.79375,0.16922 0.81944,-0.73314 c 0.4507,-0.40323 1.44717,-1.2094 2.21439,-1.79148 4.13964,-3.14072 6.81919,-5.58172 11.0028,-10.02329 0.15307,-0.1625 0.54002,-0.83907 0.8599,-1.50347 1.72553,-3.58406 -0.31621,-7.89298 -4.70306,-9.92544 -2.06658,-0.95746 -3.22172,-0.86539 -4.44108,0.35397 -0.54697,0.54697 -1.34319,1.6837 -1.7694,2.52608 -1.77632,3.51083 -7.11756,8.62923 -12.44966,11.93024 -0.43656,0.27026 -1.03188,0.70987 -1.32292,0.97689 -0.29104,0.26703 -1.30134,1.17465 -2.24512,2.01693 -3.62207,3.23256 -4.54069,4.57921 -5.06744,7.42868 -0.45614,2.46751 0.19847,5.08096 2.05695,8.21214 1.20358,2.02779 7.35025,9.43718 11.7379,14.14923 2.77253,2.97751 5.06025,3.60617 9.39271,2.58109 z m 37.85332,-32.95355 c 1.05272,-0.51505 2.3166,-1.53705 4.00155,-3.23576 1.35457,-1.36562 2.46284,-2.6038 2.46284,-2.75151 0,-0.14772 0.29766,-0.65883 0.66146,-1.1358 0.3638,-0.47696 0.66146,-0.94764 0.66146,-1.04593 0,-0.0983 0.28419,-0.62891 0.63153,-1.17914 0.34735,-0.55023 1.02044,-1.94685 1.49576,-3.1036 1.71849,-4.18215 1.03623,-7.72517 -1.96215,-10.18954 l -1.35577,-1.1143 1.98438,0.15904 c 1.0914,0.0875 2.52015,0.35635 3.175,0.59751 2.81856,1.03795 8.05255,0.19209 10.55573,-1.70591 1.99179,-1.51025 2.93802,-2.36151 2.93802,-2.64314 0,-0.14279 0.10546,-0.2993 0.23435,-0.34781 0.7377,-0.27763 3.023,-4.15616 4.26118,-7.23194 0.11716,-0.29104 0.43271,-1.00542 0.70122,-1.5875 0.39782,-0.86239 0.48854,-1.71966 0.49,-4.63021 0.002,-3.41162 -0.0328,-3.64234 -0.76934,-5.14241 -1.17266,-2.38834 -3.30708,-4.28727 -7.6485,-6.80464 -4.30112,-2.49399 -11.31864,-6.04462 -11.9467,-6.04462 -0.2335,0 -0.86628,-0.22057 -1.40619,-0.49016 -0.92166,-0.4602 -4.69058,-1.39601 -7.07452,-1.75657 -1.50534,-0.22768 -3.58579,0.76435 -6.75308,3.2201 -1.88336,1.46027 -2.9061,2.92758 -3.67472,5.27207 -0.51092,1.55846 -0.58364,2.17106 -0.42905,3.61458 0.1731,1.61639 0.26356,1.80512 1.29189,2.69546 1.61972,1.40237 4.07615,3.11317 5.9432,4.13917 0.90091,0.49508 1.60009,1.01921 1.55374,1.16473 -0.22406,0.70352 -7.19464,0.87521 -10.88911,0.26819 -3.08416,-0.50674 -3.63055,-0.49777 -4.24959,0.0697 -0.2821,0.25861 -0.87009,0.72235 -1.30666,1.03053 -0.43656,0.30818 -1.92484,1.89776 -3.30729,3.53241 -1.38245,1.63465 -3.17318,3.7152 -3.9794,4.62345 -2.20662,2.48587 -3.684,5.62128 -3.69065,7.83256 -0.006,2.1266 0.98509,3.78143 4.26619,7.12043 1.21728,1.23877 5.01121,5.14806 8.43095,8.68731 5.73705,5.93756 8.58964,8.48277 9.92512,8.85567 1.157,0.32305 3.27082,-0.005 4.77715,-0.74245 z m 19.30418,-64.02514 c 1.12113,-0.21451 2.19083,-0.5165 2.37711,-0.6711 0.18628,-0.1546 0.74851,-0.48511 1.2494,-0.73447 0.8626,-0.42943 3.90662,-3.58097 3.90662,-4.04461 0,-0.11946 0.43896,-1.12915 0.97547,-2.24377 1.34819,-2.80095 1.51741,-2.84512 4.73738,-1.23667 3.76818,1.88228 9.86267,3.76445 12.18848,3.76417 3.93277,-4.7e-4 6.91324,-2.05529 9.4021,-6.48208 1.43915,-2.55973 1.80074,-3.56917 1.80074,-5.02708 0,-1.55606 -0.40602,-2.57451 -2.05685,-5.15937 -2.26153,-3.54112 -5.07287,-5.81816 -9.32024,-7.54893 -0.94588,-0.38544 -1.91779,-0.80368 -2.15979,-0.92943 -0.242,-0.12575 -1.55037,-0.42128 -2.90748,-0.65674 -1.3571,-0.23546 -2.51545,-0.4761 -2.5741,-0.53475 -0.0587,-0.0587 0.0474,-0.83261 0.23573,-1.71992 0.1883,-0.88731 0.35402,-3.3608 0.36827,-5.49666 0.0272,-4.07611 -0.2592,-5.896 -1.23572,-7.85212 -0.5746,-1.15102 -2.73399,-3.95927 -3.60394,-4.68686 -0.89067,-0.74492 -2.55605,-1.50556 -3.69516,-1.68771 -2.58583,-0.41349 -5.96364,2.00121 -8.41818,6.01792 -1.27515,2.08671 -3.48411,6.69169 -3.91515,8.16186 -0.10666,0.3638 -0.64379,1.73302 -1.19362,3.04271 -0.54982,1.30969 -1.36047,3.45281 -1.80143,4.7625 -0.44097,1.30969 -1.21295,3.52539 -1.71553,4.92379 -0.50258,1.3984 -1.06228,3.36293 -1.24379,4.36562 -0.1815,1.0027 -0.55513,2.53747 -0.83028,3.41059 -2.57733,8.17861 -1.09682,15.82261 3.46934,17.91249 1.82008,0.83304 3.05852,0.90588 5.96062,0.35062 z m 46.80379,-53.36912 c 2.8387,-1.10923 4.49154,-3.30933 4.80821,-6.40019 0.21395,-2.08824 -0.14925,-3.8035 -1.34714,-6.36209 -1.05394,-2.25114 -1.79879,-2.87612 -4.49292,-3.76989 l -1.58098,-0.52449 1.44869,-0.9753 c 2.38372,-1.60479 3.28994,-2.35682 4.51583,-3.74745 0.6414,-0.7276 1.23358,-1.38244 1.31594,-1.4552 0.64133,-0.56655 2.02456,-3.05675 2.6921,-4.84652 0.6792,-1.82105 0.82731,-2.65325 0.93241,-5.23906 0.11923,-2.93352 0.0924,-3.13923 -0.58686,-4.49791 -1.91619,-3.8329 -4.89361,-4.84317 -9.60877,-3.26035 -2.45389,0.82375 -3.65973,1.68883 -7.96626,5.71507 -1.8367,1.71717 -3.46589,3.12455 -3.62042,3.12752 -0.31006,0.006 -1.09874,-1.02332 -1.70721,-2.22805 -0.38593,-0.76411 -4.30655,-4.91029 -4.64316,-4.91029 -0.0944,0 -0.60553,-0.33557 -1.1358,-0.74572 -2.62609,-2.03123 -6.13003,-2.6005 -8.50474,-1.38173 -2.33853,1.2002 -3.56139,2.48576 -4.85547,5.10438 -0.6651,1.34587 -1.28988,2.80422 -1.38839,3.24078 -0.0985,0.43656 -0.27834,0.92091 -0.39963,1.07632 -0.12129,0.15541 -0.46204,1.76276 -0.75722,3.57187 -0.61717,3.7826 -0.70696,9.26519 -0.24862,15.18059 0.2419,3.12202 0.37438,3.81219 0.82512,4.29875 0.62593,0.67565 2.18738,1.45547 7.48567,3.73848 3.09042,1.33165 10.09999,3.7517 10.86664,3.7517 0.31691,0 1.09719,0.18619 1.73395,0.41375 1.42726,0.51006 6.73143,1.41237 9.7567,1.65974 2.9719,0.24301 4.87501,0.0855 6.46233,-0.53471 z M 307.5993,196.66238 c -3.24374,-0.2256 -4.63063,-0.49134 -4.62885,-0.88694 0.003,-0.56492 1.18686,-2.18722 2.3799,-3.26004 1.58936,-1.4292 2.83797,-1.87525 3.95461,-1.41272 0.9831,0.40721 2.54025,2.21486 2.80023,3.25071 0.10062,0.40089 0.28882,0.79432 0.41822,0.8743 0.1294,0.08 0.23527,0.49557 0.23527,0.92354 0,0.88703 0.10124,0.877 -5.15938,0.51115 z m 22.89022,-32.53652 c 4.20282,-0.27236 4.9796,-0.47818 8.66913,-2.29704 3.24599,-1.60021 5.10205,-3.4159 5.70257,-5.57853 0.73395,-2.64314 1.07412,-6.37935 1.07804,-11.84072 0.003,-4.60198 -0.0715,-5.57701 -0.57368,-7.48102 -0.68368,-2.59196 -1.07309,-3.16998 -2.77625,-4.12089 -3.13664,-1.75125 -6.77071,-2.55514 -13.29419,-2.94081 -3.62327,-0.2142 -11.91213,0.38493 -16.07344,1.16182 -2.38176,0.44466 -4.4476,0.8168 -5.88254,1.05968 -1.05942,0.17932 -1.49301,0.42396 -2.20672,1.24511 -1.5092,1.73638 -1.75914,2.40814 -1.75845,4.72611 8.6e-4,2.86311 0.36813,3.77944 1.91437,4.77633 2.97326,1.91691 3.53837,2.03412 10.38074,2.15293 6.00634,0.1043 7.78208,0.28608 9.32656,0.95472 0.92098,0.39871 0.92476,0.80479 0.0114,1.22096 -0.87391,0.39818 -11.06985,1.04704 -13.86047,0.88206 -5.01271,-0.29634 -9.0555,1.40884 -10.50961,4.4328 -0.65605,1.36431 -0.5809,5.03686 0.13555,6.62407 0.80789,1.78979 2.67282,3.63811 4.51002,4.46988 1.54137,0.69783 17.54997,1.04874 25.207,0.55254 z m 1.33452,-41.69041 c 7.23366,-0.5002 10.90809,-1.16867 11.96472,-2.17669 2.07718,-1.9816 2.80737,-6.01842 1.91013,-10.55994 -0.78249,-3.96066 -2.22303,-6.12769 -4.60313,-6.92458 -1.07509,-0.35996 -3.50244,-0.39069 -4.78916,-0.0606 -0.50933,0.13064 -1.46183,0.30953 -2.11667,0.39752 l -1.19063,0.16 1.19063,-1.09582 c 3.08914,-2.843139 3.79268,-3.626218 4.38745,-4.88346 0.86691,-1.832496 0.86953,-4.075191 0.006,-5.479213 -1.25826,-2.046773 -3.10819,-2.870016 -7.5653,-3.366673 -1.38049,-0.153828 -2.60664,-0.376347 -2.72478,-0.494486 -0.11814,-0.118139 0.7137,-0.549195 1.84853,-0.957903 1.13483,-0.408707 3.45969,-1.438392 5.16635,-2.288187 2.73224,-1.360456 3.16696,-1.670393 3.63802,-2.593758 0.70053,-1.373154 0.6987,-3.605839 -0.007,-8.531525 -0.6775,-4.728923 -3.90987,-16.821244 -6.20952,-23.229897 -0.33942,-0.945885 -0.70038,-2.13651 -0.80213,-2.645833 -0.4324,-2.16432 -1.56309,-3.79032 -3.08539,-4.436988 -0.66388,-0.282012 -0.80146,-0.220052 -1.85208,0.834098 -0.62422,0.626308 -1.724,2.19919 -2.44397,3.495294 -0.71997,1.296105 -1.62607,2.773273 -2.01355,3.282596 -6.93091,9.110276 -20.98467,28.241393 -21.47716,29.236458 -1.16861,2.361124 -1.61483,4.596729 -1.46349,7.332225 0.11807,2.134003 0.31732,3.030475 1.10486,4.9709 0.0886,0.218282 0.39612,0.754063 0.6834,1.190625 0.28728,0.436563 0.63324,1.031875 0.7688,1.322917 0.45523,0.977364 1.84792,2.254848 2.99354,2.745919 0.62496,0.267888 2.05759,0.573403 3.18363,0.678922 1.12604,0.105518 2.10806,0.290086 2.18226,0.41015 0.27223,0.440466 -0.18702,1.003597 -1.13915,1.396829 -0.53713,0.22183 -1.71113,0.70543 -2.60888,1.07466 -0.89775,0.36922 -1.93878,0.93781 -2.31339,1.26353 -1.5418,1.34059 -2.43521,5.74219 -2.14166,10.55141 0.47577,7.79438 2.29589,8.96359 14.81857,9.51917 6.92095,0.30706 8.4798,0.29246 14.69974,-0.13763 z m -464.97086,262.61346 c -1.7189,-0.98533 -3.38578,-2.02207 -3.70416,-2.30386 -0.31839,-0.2818 -1.47185,-1.03386 -2.56326,-1.67125 -1.09141,-0.63739 -2.37294,-1.48997 -2.84784,-1.89463 -0.47491,-0.40466 -1.24882,-0.93197 -1.71979,-1.17179 -1.00749,-0.51303 -5.17798,-3.56037 -9.15056,-6.68623 -1.55005,-1.21967 -3.47791,-2.66566 -4.28414,-3.21332 -0.80622,-0.54766 -1.63966,-1.20659 -1.85208,-1.4643 -0.21242,-0.25771 -2.46981,-2.23335 -5.01642,-4.39031 -2.54662,-2.15696 -5.77739,-4.93028 -7.1795,-6.16294 -3.7719,-3.31605 -17.49057,-17.04208 -20.30991,-20.32081 -1.34516,-1.56435 -2.53399,-2.84427 -2.64184,-2.84427 -0.10785,0 -0.84361,-0.79383 -1.63503,-1.76406 -0.79141,-0.97023 -2.15933,-2.60734 -3.03983,-3.63802 -2.13113,-2.49465 -7.07811,-9.03689 -11.12029,-14.70625 -1.31929,-1.85037 -5.14052,-7.70601 -6.53355,-10.01198 -0.46948,-0.77717 -1.23025,-1.97971 -1.6906,-2.67233 -1.06615,-1.60405 -2.81414,-5.0795 -3.34796,-6.65658 -0.22655,-0.66931 -0.70463,-1.85993 -1.0624,-2.64583 -1.52742,-3.35523 -2.55974,-8.23292 -2.55567,-12.07554 0.004,-3.90842 0.79802,-9.30798 2.03301,-13.82733 0.37777,-1.38245 0.89207,-3.40651 1.14288,-4.49791 0.79011,-3.43822 2.377,-8.76359 3.42965,-11.50938 0.55787,-1.45521 1.21588,-3.30068 1.46223,-4.10104 1.23355,-4.00771 7.33816,-16.19661 10.53893,-21.0428 0.60642,-0.91816 1.43374,-2.18484 1.83849,-2.81485 0.40475,-0.63001 1.11912,-1.70499 1.5875,-2.38883 0.46838,-0.68385 1.08972,-1.59994 1.38076,-2.03576 1.14385,-1.71286 4.82213,-6.36069 6.7228,-8.49484 3.43919,-3.86168 12.59783,-12.83243 13.96257,-13.67612 0.73822,-0.45638 2.02245,-1.50292 4.8784,-3.97547 0.70842,-0.61332 2.62826,-2.00855 4.2663,-3.10052 4.76824,-3.17865 4.54422,-2.92097 4.6494,-5.34785 0.0495,-1.143 -0.0311,-2.55442 -0.17922,-3.1365 -0.61823,-2.4297 -0.80106,-3.30384 -1.21747,-5.82084 -0.24075,-1.4552 -0.60789,-3.59833 -0.81587,-4.7625 -0.20798,-1.16416 -0.5034,-3.30729 -0.6565,-4.7625 -0.15309,-1.4552 -0.39198,-3.24114 -0.53086,-3.96875 -0.5529,-2.8967 -1.34381,-15.28555 -1.49487,-23.41562 -0.20076,-10.8057 0.24808,-19.46283 1.55697,-30.03021 0.89712,-7.242877 1.17651,-9.195321 1.60912,-11.244792 0.23037,-1.091406 0.68496,-3.234531 1.01019,-4.7625 0.32522,-1.527968 0.69521,-3.373437 0.82219,-4.101041 0.12698,-0.727604 0.46962,-2.275417 0.76142,-3.439584 0.2918,-1.164166 0.63186,-2.726523 0.75568,-3.471903 0.12382,-0.74538 0.35643,-1.600555 0.51689,-1.90039 0.16047,-0.299834 0.57514,-1.71404 0.92149,-3.14268 0.34636,-1.42864 1.05086,-3.847683 1.56556,-5.375652 0.5147,-1.527968 1.01909,-3.184612 1.12085,-3.681431 0.10177,-0.496818 0.84192,-2.639943 1.64477,-4.7625 0.80286,-2.122556 1.61405,-4.335444 1.80266,-4.917527 0.1886,-0.582083 0.7771,-2.070365 1.30776,-3.307292 0.53067,-1.236927 1.1255,-2.665677 1.32185,-3.175 0.19636,-0.509323 0.79687,-1.938073 1.33447,-3.175 0.53761,-1.236927 1.42131,-3.32052 1.96378,-4.630208 1.1285,-2.724535 3.45233,-7.429224 5.29288,-10.715625 0.69274,-1.236927 1.95311,-3.499115 2.80081,-5.027083 2.15958,-3.89258 6.93886,-11.859882 7.7634,-12.941996 0.37863,-0.4969 1.2242,-1.771177 1.87904,-2.8317272 2.39211,-3.8741286 6.27685,-9.37672534 8.64752,-12.2488998 0.40985,-0.4965571 0.98331,-1.2926376 1.27435,-1.7690678 0.29105,-0.4764301 1.15489,-1.6179687 1.91966,-2.5367522 0.76477,-0.9187836 2.16044,-2.6230156 3.1015,-3.787182 3.87521,-4.793962 5.7644,-7.011459 5.9734,-7.011459 0.12164,0 0.77405,-0.684609 1.4498,-1.521354 1.49259,-1.848201 6.02927,-6.735657 8.16463,-8.795919 1.46421,-1.412721 1.61753,-1.493455 2.52201,-1.328059 3.079873,0.563194 9.184302,5.376763 16.431602,12.956926 2.39703,2.507123 4.464365,4.755703 4.594078,4.996844 0.129714,0.24114 1.082214,1.348004 2.116667,2.4596976 1.034453,1.1116931 2.437864,2.7190369 3.118691,3.571875 0.680827,0.8528381 1.838957,2.2649898 2.573623,3.1381148 1.697819,2.01779888 9.619869,12.1333844 12.225343,15.6104166 1.090444,1.455208 3.156339,4.193646 4.590878,6.085417 4.725332,6.23144 10.300609,14.122098 11.930824,16.885627 0.444694,0.753843 1.603448,2.468081 2.575011,3.809418 1.463997,2.021194 4.099499,6.182532 6.637264,10.479942 0.272695,0.461778 0.856601,1.434909 1.297569,2.162513 2.170037,3.580599 8.399168,15.298545 8.790598,16.536458 0.115035,0.363802 0.95497,2.209271 1.866523,4.101042 3.183902,6.60764 4.444548,9.524897 6.204485,14.357782 0.279041,0.76626 0.73721,2.016416 1.018155,2.778125 0.931291,2.524958 1.395937,3.995949 2.406518,7.618641 0.550479,1.973334 1.131615,3.997395 1.291414,4.497915 0.366547,1.1481 1.746159,7.49539 2.1243299,9.77358 0.9353501,5.63476 1.0937778,9.64106 0.7271692,18.38854 -0.1900933,4.53573 -0.1592946,5.5554 0.2155953,7.13785 1.143923,4.82861 4.1289246,7.14248 10.055652,7.79481 1.0757381,0.1184 5.6937651,0.0431 10.8665996,-0.17712 6.586175,-0.28043 18.563593,-0.396 44.714583,-0.43146 l 35.71875,-0.0484 1.455209,-0.78783 c 1.222282,-0.66173 1.510476,-0.96242 1.800492,-1.8786 0.302207,-0.95469 0.284536,-1.26826 -0.141649,-2.51354 -0.501353,-1.46491 -11.802258,-19.44141 -15.579303,-24.7822 -1.147757,-1.62295 -2.411081,-3.46038 -2.807386,-4.08319 -0.859682,-1.35103 -2.139241,-3.20371 -3.695683,-5.35099 -0.627007,-0.86503 -1.396808,-2.01851 -1.710668,-2.56329 -0.31386,-0.54478 -1.221534,-1.80156 -2.017055,-2.79284 -0.79552,-0.991293 -1.63144,-2.16673 -1.857599,-2.612087 -0.458418,-0.902724 -3.474589,-4.690896 -4.451691,-5.591117 -0.346257,-0.319014 -1.320812,-0.896491 -2.165678,-1.283283 -1.350453,-0.618259 -1.798069,-0.691503 -3.703387,-0.605999 l -2.167268,0.09726 -11.906251,5.952956 c -14.488458,7.244019 -21.580133,10.687499 -23.128199,11.230269 -0.64228,0.2252 -1.297124,0.51678 -1.455208,0.64797 -0.158084,0.13119 -1.037592,0.49813 -1.954462,0.81543 -1.626275,0.56279 -1.711145,0.56609 -3.470999,0.13482 -1.149176,-0.28162 -2.305087,-0.80001 -3.184574,-1.42817 C 8.8978464,106.49409 8.6053893,105.94489 7.4461276,102.07624 7.1844914,101.20312 6.4188757,99.28555 5.7447594,97.814985 5.0706432,96.34442 4.5190935,94.9972 4.5190935,94.821163 c 0,-0.507779 -3.6459416,-8.947341 -4.80095507,-11.113168 -0.57608274,-1.080243 -1.52932553,-3.104305 -2.11831723,-4.497917 -0.5889918,-1.393611 -1.5233603,-3.367275 -2.0763745,-4.385921 -0.5530142,-1.018646 -2.1874766,-4.173802 -3.6321386,-7.011459 -1.4446621,-2.837656 -3.1717191,-6.111875 -3.8379041,-7.276041 -0.666185,-1.164167 -2.404002,-4.378854 -3.861816,-7.14375 -1.457814,-2.764896 -3.582457,-6.446266 -4.721428,-8.180823 -1.138972,-1.734557 -2.725702,-4.250507 -3.526067,-5.590999 -1.607282,-2.691961 -3.445571,-5.527965 -5.34982,-8.253387 -0.686828,-0.98301 -1.817922,-2.603297 -2.513541,-3.600638 -0.69562,-0.997341 -1.630625,-2.247497 -2.077789,-2.778125 -0.447164,-0.530628 -1.39571,-1.857747 -2.10788,-2.949153 -0.71217,-1.091407 -2.429903,-3.456706 -3.817183,-5.256221 -1.387281,-1.799515 -3.032451,-3.94264 -3.655934,-4.7625 -0.623482,-0.81986 -1.695045,-2.1938426 -2.38125,-3.0532949 -0.686204,-0.8594524 -1.545301,-2.0064404 -1.909103,-2.5488622 -0.363802,-0.5424219 -1.991234,-2.5181398 -3.616516,-4.3904844 -1.625281,-1.87234453 -3.227225,-3.7614503 -3.559874,-4.1980128 -1.321848,-1.7347662 -9.805077,-11.3314047 -13.183519,-14.9138337 -3.079113,-3.265026 -6.814047,-6.889467 -13.272125,-12.879485 -0.816837,-0.757636 -2.305118,-1.859104 -3.307291,-2.447707 -1.002174,-0.588603 -2.328149,-1.560288 -2.946613,-2.1593 -0.967075,-0.936659 -1.124479,-1.242707 -1.124479,-2.186379 0,-1.553327 0.86616,-3.152657 2.743004,-5.064846 1.506525,-1.534896 5.444486,-4.447142 8.704736,-6.437426 0.761504,-0.464875 2.039396,-1.312369 2.83976,-1.88332 2.568378,-1.832187 10.947834,-6.972555 17.859375,-10.955813 1.891771,-1.090265 4.21349,-2.457932 5.159375,-3.039259 4.48582,-2.756919 14.05892,-7.253702 19.248438,-9.041589 0.472943,-0.162938 1.187318,-0.41352 1.5875,-0.556849 7.517577,-2.692493 11.060035,-3.500272 15.544271,-3.544526 3.527499,-0.03481 4.69671,0.264228 7.1714222,1.834183 1.4764499,0.936659 5.158001,4.549629 7.40046627,7.262608 0.78183976,0.945885 1.73260383,2.010091 2.11280893,2.364901 0.5565467,0.519374 10.9955866,14.002282 16.2750376,21.020595 1.453024,1.931599 6.661105,9.413212 8.369281,12.022802 0.697896,1.066179 2.246668,3.328366 3.441716,5.027083 3.626231,5.154553 9.780383,14.253104 13.834477,20.4534562 2.110052,3.2271251 5.29259,8.02208995 7.072307,10.6554774 1.779718,2.6333874 4.514444,6.8120394 6.07717,9.2858934 1.562726,2.473855 4.201952,6.52198 5.864946,8.995834 1.662994,2.473854 4.35647,6.641041 5.985501,9.260416 3.351515,5.389015 7.220452,11.375372 13.936353,21.563542 4.081473,6.191684 30.610699,44.27371 45.049139,64.666885 2.87558,4.06152 5.29746,7.56477 5.38197,7.78499 0.0845,0.22023 0.38285,0.62961 0.66299,0.90975 0.28013,0.28013 0.78167,1.12514 1.11453,1.87778 0.78427,1.77339 3.29815,4.48303 4.86153,5.24011 0.92274,0.44685 1.68827,0.5926 3.08002,0.58642 1.65412,-0.007 2.1349,-0.1428 4.49792,-1.26721 5.46977,-2.60271 6.59005,-3.06917 7.3745,-3.07055 0.30965,-5.4e-4 0.92937,-0.2244 1.37716,-0.49746 0.44779,-0.27307 2.05514,-0.95199 3.57188,-1.50872 3.22026,-1.18201 4.73552,-1.9663 6.19729,-3.20764 1.87358,-1.59106 2.06259,-2.94692 1.05834,-7.59182 -0.60211,-2.78485 -0.66146,-3.62866 -0.66146,-9.4035 0,-3.48926 0.11199,-7.509644 0.24887,-8.934179 0.13689,-1.424535 0.38086,-4.018814 0.54217,-5.765064 0.16131,-1.74625 0.46198,-4.1275 0.66816,-5.291667 0.20617,-1.164167 0.55218,-3.366823 0.76891,-4.894792 0.9093,-6.410768 1.34375,-8.566011 3.73342,-18.520833 1.37983,-5.748073 2.51185,-10.689167 2.5156,-10.980208 0.009,-0.67063 0.72663,-2.659363 1.79996,-4.985602 0.45947,-0.99583 0.83541,-1.858716 0.83541,-1.917523 0,-0.05881 0.34868,-0.85138 0.77484,-1.761273 0.9955,-2.125457 1.87099,-4.756753 1.87099,-5.623254 0,-1.102732 -0.67351,-2.391742 -1.59109,-3.045113 -1.45922,-1.039054 -5.12124,-1.02495 -10.18287,0.03922 -4.23585,0.890556 -8.08067,2.140615 -15.74271,5.118399 -2.11005,0.820053 -4.4913,1.708938 -5.29166,1.9753 -1.94812,0.648335 -7.76996,3.220503 -13.75834,6.07862 -2.69213,1.284895 -6.02588,2.84462 -7.40833,3.466055 -4.48756,2.017242 -5.82083,3.339022 -5.82083,5.770677 0,1.755578 0.23574,2.204842 6.20126,11.817829 5.83201,9.39784 12.80915,21.465017 12.53647,21.682207 -0.0465,0.03706 -0.79898,0.394748 -1.67211,0.794856 -4.00931,1.837262 -6.16098,2.168192 -7.75975,1.193463 -0.92163,-0.561893 -2.16212,-1.77748 -2.16212,-2.118709 0,-0.109471 -1.72879,-2.562632 -3.84175,-5.451469 -8.76174,-11.97903 -12.77405,-17.585401 -15.12027,-21.127431 -0.96391,-1.455209 -2.54402,-3.717396 -3.51134,-5.027084 -0.96732,-1.309687 -2.20739,-3.095625 -2.75572,-3.96875 -0.54833,-0.873125 -3.425281,-5.159375 -6.393231,-9.525 C 92.430919,41.618948 88.122167,35.209859 85.823866,31.742152 67.891849,4.6860984 54.178401,-15.843812 51.507202,-19.632093 c -1.744369,-2.473854 -4.4489,-6.343386 -6.010069,-8.598959 -1.56117,-2.255573 -3.531998,-5.032748 -4.379619,-6.171501 -1.517219,-2.038337 -2.410941,-3.301731 -4.116681,-5.819467 -0.475217,-0.701438 -1.866889,-2.66597 -3.092604,-4.365625 -1.225715,-1.699655 -3.198774,-4.578563 -4.384576,-6.397573 -1.185802,-1.819011 -3.387816,-4.96755 -4.893365,-6.996755 -1.50555,-2.029205 -3.282959,-4.554456 -3.949799,-5.61167 -1.233029,-1.954853 -4.803535,-7.501148 -7.297948,-11.336367 -2.760898,-4.244947 -5.3201367,-9.002567 -4.957383,-9.215764 0.3475925,-0.204288 9.69131,-2.762994 10.646019,-2.915332 0.509323,-0.08127 1.640417,-0.278605 2.513542,-0.438522 6.139822,-1.12454 9.366424,-1.529267 18.123958,-2.273369 4.041016,-0.343353 8.743859,-0.444382 21.695834,-0.466084 16.425911,-0.02752 16.578024,-0.02286 22.754166,0.697576 3.41974,0.398905 6.991615,0.852162 7.9375,1.007236 0.945886,0.155074 2.791355,0.458504 4.101042,0.674288 1.309688,0.215785 3.690938,0.688835 5.291671,1.051222 1.60072,0.362388 3.38666,0.767 3.96875,0.899138 1.85083,0.420156 7.59181,2.011367 9.92187,2.75002 1.23693,0.392118 3.0824,0.941808 4.10104,1.221534 1.01865,0.279725 2.58417,0.796537 3.47893,1.148472 0.89476,0.351934 2.91883,1.022701 4.49792,1.490592 1.57909,0.467892 4.12123,1.301538 5.64919,1.852548 1.52797,0.55101 4.14735,1.423812 5.82084,1.939559 3.20589,0.988013 5.95566,1.963244 7.9375,2.815106 9.86355,4.23969 13.03287,5.704071 17.19791,7.946284 1.81901,0.979247 4.49792,2.411825 5.95313,3.183507 1.45521,0.771681 3.06255,1.725183 3.57187,2.118892 0.50933,0.39371 1.52136,1.035959 2.24896,1.427221 0.72761,0.391262 2.33495,1.356627 3.57188,2.145255 1.23693,0.788629 2.84427,1.798062 3.57187,2.243185 0.72761,0.445123 2.21589,1.464418 3.30729,2.265099 1.09141,0.800682 2.50299,1.778634 3.13684,2.173228 1.69001,1.052076 11.42829,8.795738 14.19337,11.286249 1.30969,1.179635 3.0361,2.696592 3.83646,3.371016 1.7552,1.479008 13.58845,13.186796 15.62029,15.454663 3.78389,4.223451 6.34013,7.332363 6.34013,7.710901 0,0.127436 -1.70628,1.9511697 -3.79174,4.0527411 -2.08546,2.1015714 -4.55601,4.8204193 -5.49011,6.0418841 -3.38402,4.4250822 -2.94536,3.8181725 -6.5874,9.114015 -0.88472,1.2864647 -1.91592,2.9533398 -2.29156,3.7041668 -0.37564,0.750827 -0.91164,1.61484 -1.19111,1.920028 -0.50627,0.552869 -5.69014,10.635597 -6.24421,12.145112 -0.16024,0.436562 -0.72794,1.805781 -1.26155,3.042708 -1.06592,2.470833 -4.76457,13.562114 -5.29389,15.875 -0.18317,0.800365 -0.68991,2.883958 -1.12609,4.630208 -1.99978,8.006067 -3.17466,15.985113 -4.57796,31.090523 -0.87134,9.379323 -0.88542,12.049289 -0.0802,15.211561 1.12005,4.398729 3.70125,6.197453 7.54298,5.256373 2.08431,-0.51057 3.69697,-1.238289 5.29287,-2.388404 0.67434,-0.485977 1.34437,-0.883594 1.48896,-0.883594 0.14458,0 0.41493,-0.183211 0.60077,-0.407135 0.18584,-0.223923 1.53987,-1.309386 3.00896,-2.412139 1.46909,-1.102752 3.27413,-2.616182 4.01121,-3.363178 0.73708,-0.746995 2.52302,-2.500209 3.96875,-3.896031 1.44574,-1.395822 3.64064,-3.762902 4.87757,-5.26018 1.23693,-1.497277 2.66568,-3.225989 3.175,-3.841583 0.50932,-0.615593 1.40229,-1.696957 1.98437,-2.40303 2.54878,-3.091695 9.15469,-13.769512 12.75534,-20.617766 3.37345,-6.416141 7.43652,-15.266651 8.92761,-19.446875 0.38931,-1.091406 1.00901,-2.78941 1.37712,-3.773343 0.3681,-0.983932 0.82534,-2.412682 1.01609,-3.175 0.19074,-0.762317 0.59801,-2.219469 0.90505,-3.238115 0.52423,-1.739232 1.35424,-5.758826 2.64974,-12.832292 0.70721,-3.8614133 2.35891,-16.1559598 2.68366,-19.9760416 0.87537,-10.2971084 1.01962,-13.6160884 1.01774,-23.4156254 -0.002,-9.959248 -0.1972,-15.537447 -0.75956,-21.695833 -0.13952,-1.527969 -0.38151,-4.321584 -0.53774,-6.208034 -0.15623,-1.88645 -0.46338,-4.203115 -0.68254,-5.148146 -0.21917,-0.94503 -0.57251,-3.032977 -0.7852,-4.639882 -0.61059,-4.613192 -1.36418,-8.518655 -3.6014,-18.664355 -1.17245,-5.317017 -2.37042,-9.811979 -3.66678,-13.758328 -0.74094,-2.25558 -1.63986,-5.25549 -1.99758,-6.66648 -0.35773,-1.41098 -0.991,-3.4499 -1.40727,-4.53093 l -0.75685,-1.96551 1.61775,0.65472 c 4.70296,1.90336 11.97295,5.94882 16.53474,9.2009 7.67995,5.475014 10.88407,7.980815 12.86425,10.060574 0.43656,0.458516 1.35392,1.27329 2.03857,1.81061 4.25003,3.335472 24.29461,24.629017 29.44685,31.281663 0.43656,0.563696 1.217,1.443346 1.73432,1.954779 0.51731,0.511433 1.36842,1.465659 1.89136,2.120502 0.52294,0.654844 1.29031,1.570609 1.70527,2.035034 0.96983,1.085453 1.65184,1.954231 3.08525,3.930162 2.08239,2.870548 2.96198,4.786893 4.56493,9.945475 l 1.26325,4.065371 -0.32004,7.352616 c -0.31175,7.162225 -0.60388,10.724071 -1.07874,13.152592 -0.12805,0.654844 -0.37345,2.083594 -0.54535,3.175 -0.40581,2.576536 -1.51014,7.7414164 -1.98002,9.260417 -0.20257,0.6548438 -0.61423,2.4407813 -0.9148,3.96875003 -0.76826,3.90540257 -2.50731,9.70100667 -4.52533,15.08124997 -0.46394,1.236927 -1.07039,2.879385 -1.34765,3.649906 -1.34639,3.741658 -6.15033,13.351271 -9.08747,18.178219 -1.85401,3.04692 -6.18103,9.612977 -7.12935,10.818463 -0.44516,0.565884 -1.34516,1.775797 -2.00001,2.688696 -1.95482,2.725159 -5.73984,7.34704 -7.64903,9.340216 -0.78724,0.821861 -2.22086,2.38726 -3.18584,3.478667 -4.10958,4.64801 -14.74443,14.424077 -20.17003,18.541268 -0.97265,0.738088 -1.94051,1.604571 -2.1508,1.925518 -0.21029,0.320947 -0.902,0.937139 -1.53713,1.369315 -0.63512,0.432175 -2.79982,2.03593 -4.81044,3.563899 -2.01062,1.527968 -4.21405,3.173897 -4.89651,3.657619 -0.68247,0.483722 -1.89569,1.386673 -2.69605,2.006557 -1.50457,1.165296 -2.56346,1.892938 -7.58701,5.213608 -3.08668,2.040354 -5.4535,3.522764 -7.76739,4.864924 -0.75263,0.43656 -1.93129,1.159 -2.61924,1.60543 -1.77018,1.1487 -6.5196,3.76669 -9.9399,5.4791 -3.5761,1.79042 -12.90368,6.84387 -17.22124,9.33004 -2.85538,1.64421 -3.28576,1.98909 -4.01392,3.21646 -1.71571,2.89199 -2.09977,7.68902 -1.01404,12.66578 0.45462,2.08385 2.20878,7.33506 3.26431,9.77194 2.58237,5.96184 5.94724,6.67558 10.95774,2.32431 2.2983,-1.99592 4.3319,-3.64955 7.1011,-5.77429 2.09416,-1.6068 5.90949,-4.57003 10.40853,-8.08393 1.04203,-0.81386 3.20429,-2.35376 4.80502,-3.422 1.60073,-1.06823 4.04151,-2.78094 5.42396,-3.80602 2.29221,-1.69967 4.51162,-3.23534 15.36747,-10.63319 3.34404,-2.27883 20.46285,-13.20862 26.65309,-17.0171 1.57015,-0.966024 2.82813,-1.580414 2.96106,-1.446175 0.76826,0.775793 1.73945,19.019545 1.49135,28.014645 -0.17984,6.52027 -0.82536,16.82897 -1.21775,19.44688 -0.29951,1.99827 -0.67219,4.7588 -1.0716,7.9375 -0.35175,2.79941 -4.48904,23.79459 -5.39634,27.38437 -0.36779,1.45521 -0.91866,3.65786 -1.22415,4.89479 -2.06849,8.37528 -3.82153,15.0464 -4.10211,15.61042 -0.18098,0.3638 -0.75447,2.20927 -1.27442,4.10104 -0.96522,3.51177 -1.21377,4.31133 -3.20771,10.31875 -1.9293,5.81267 -3.71739,10.68484 -5.29209,14.41979 -0.82826,1.96453 -2.40437,5.715 -3.50246,8.33438 -1.70976,4.07845 -5.79983,12.48718 -7.03529,14.46375 -2.33483,3.73543 -4.11651,6.20848 -5.53728,7.686 -1.64963,1.71551 -3.13617,2.65414 -3.32174,2.09742 -0.12891,-0.38673 -6.41356,-10.95359 -6.78901,-11.41488 -0.17766,-0.21828 -0.71071,-1.09847 -1.18455,-1.95597 -0.47383,-0.85751 -1.88334,-3.1197 -3.13223,-5.02709 -1.2489,-1.90739 -2.70127,-4.19669 -3.22749,-5.08733 -0.52622,-0.89063 -1.72622,-2.70618 -2.66666,-4.03454 -0.94044,-1.32836 -2.48379,-3.65441 -3.42968,-5.169 -1.62426,-2.60083 -4.61857,-7.07525 -10.81745,-16.16461 -2.46368,-3.61248 -5.28434,-7.69932 -13.25963,-19.21178 -1.52797,-2.20565 -5.97699,-8.6675 -9.88671,-14.35967 -3.90972,-5.69216 -7.25185,-10.46845 -7.42696,-10.61397 -0.81457,-0.67693 -4.50882,-7.35743 -4.78649,-8.65564 -0.10227,-0.47815 -0.28458,-0.99257 -0.40513,-1.14317 -0.12056,-0.15059 -0.42189,-1.34122 -0.66964,-2.64583 -0.24774,-1.30461 -1.14737,-5.69502 -1.99916,-9.75646 -1.97978,-9.43979 -2.77038,-11.28202 -5.35896,-12.48735 -1.6792,-0.78189 -2.0746,-0.78249 -5.18632,-0.008 -5.961,1.48397 -15.67702,5.53635 -17.09817,7.13134 -1.10456,1.23968 -1.27371,2.08423 -0.75059,3.74739 0.25153,0.79967 0.62007,1.58901 0.81898,1.75408 0.1989,0.16508 0.36165,0.41878 0.36165,0.56376 0,0.41982 2.27184,3.19497 5.45062,6.65818 2.44782,2.66683 6.34612,8.02606 23.40174,32.17175 11.25556,15.93453 20.85598,29.56719 21.33427,30.29479 0.47829,0.7276 1.71297,2.51354 2.74375,3.96875 4.01789,5.6723 6.89346,9.84104 7.57408,10.98021 0.39125,0.65484 1.26904,1.905 1.95066,2.77812 0.68161,0.87313 1.5068,2.12328 1.83376,2.77813 0.32696,0.65484 0.88794,1.58196 1.24662,2.06027 0.86029,1.14722 4.39636,8.69319 5.35777,11.43348 3.05719,8.71381 4.12114,14.47541 3.88427,21.03437 -0.0788,2.18282 -0.2593,4.38547 -0.40105,4.8948 -0.14175,0.50932 -0.38887,1.64041 -0.54917,2.51354 -0.27212,1.48225 -0.68266,2.83456 -1.84742,6.08541 -0.57842,1.61439 -3.81048,7.89657 -4.54863,8.84123 -0.87116,1.11487 -3.75234,5.05057 -4.3852,5.99019 -0.32242,0.47871 -1.87768,2.27857 -3.45615,3.99969 -1.57846,1.72112 -2.98153,3.31362 -3.11794,3.53888 -0.75604,1.24849 -9.58705,9.22699 -13.9625,12.61461 -0.60621,0.46935 -1.99516,1.57192 -3.08657,2.45017 -4.46311,3.59143 -16.18181,11.50227 -20.37291,13.75297 -1.09141,0.5861 -3.29406,1.83103 -4.89479,2.76649 -4.49689,2.62799 -12.7958,6.68914 -18.38855,8.99861 -0.94588,0.39059 -2.25557,0.93065 -2.91041,1.20014 -1.96246,0.8076 -7.64175,2.80142 -10.18646,3.57615 -1.30969,0.39873 -2.86148,0.89021 -3.44843,1.09219 -0.58695,0.20197 -1.31655,0.36723 -1.62133,0.36723 -0.30479,0 -0.95565,0.16489 -1.44637,0.36642 -0.90033,0.36976 -8.10899,1.99468 -13.7245,3.09368 -3.12909,0.61239 -6.91539,1.19072 -12.699996,1.93984 -1.81901,0.23557 -4.319323,0.61359 -5.55625,0.84004 -1.236927,0.22646 -3.618177,0.52731 -5.291667,0.66855 -1.673489,0.14125 -4.845669,0.43273 -7.049289,0.64774 -14.541433,1.41884 -35.5039,1.40725 -47.130576,-0.026 -3.440223,-0.42409 -8.010179,-1.61296 -12.12407,-3.15406 -3.236385,-1.21238 -10.7238236,-4.72891 -13.640456,-6.40633 -4.7391352,-2.7256 -12.0962875,-9.13388 -18.848044,-16.41716 -5.799422,-6.25597 -6.95776,-7.6407 -8.328844,-9.95666 -0.701809,-1.18547 -1.859985,-3.07334 -2.573724,-4.19529 -2.698221,-4.2414 -3.567826,-5.78142 -6.243553,-11.05697 -3.908095,-7.70534 -5.147356,-11.13554 -6.022085,-16.66875 -0.172536,-1.09141 -0.432926,-2.70186 -0.578643,-3.57877 -0.686346,-4.13038 -0.667293,-16.16075 0.03414,-21.55665 0.429042,-3.30049 1.82725,-11.99576 2.297442,-14.2875 0.381496,-1.85943 0.795035,-3.54277 2.307469,-9.39271 1.998838,-7.7313 6.856424,-20.18345 9.538955,-24.45257 0.327426,-0.52109 1.109618,-1.8404 1.738204,-2.9318 2.733126,-4.7455 5.724958,-8.97341 8.987015,-12.7 0.955356,-1.09141 2.20768,-2.57969 2.782941,-3.3073 0.575261,-0.7276 2.0903336,-2.39448 3.3668274,-3.70416 1.2764938,-1.30969 2.3210797,-2.46325 2.3213019,-2.56347 6.508e-4,-0.29343 10.4864861,-9.81014 15.5713519,-14.1322 0.5310308,-0.45137 2.2156668,-1.72803 3.7436358,-2.83702 1.527969,-1.10899 3.099077,-2.26143 3.491352,-2.56099 0.392276,-0.29955 1.344776,-0.97809 2.116667,-1.50787 11.962039,-8.21005 18.76748,-11.90126 31.433648,-17.04937 9.720156,-3.95071 9.72829,-3.95455 11.046354,-5.22428 0.672917,-0.64824 0.858668,-1.04361 0.854247,-1.81825 -0.0083,-1.4565 -1.243316,-2.2279 -4.549062,-2.8414 -2.359956,-0.43797 -3.865039,-0.46418 -18.388541,-0.32028 -14.609069,0.14476 -16.52607,0.21791 -25.078623,0.95699 -14.26988081,1.23316 -17.0141132,1.53159 -19.5285363,2.12367 -3.6787859,0.86626 -3.7327647,0.91227 -4.1115509,3.50458 -0.1768961,1.21062 -0.4500464,2.79645 -0.6070008,3.52405 -0.418003,1.93777 -2.61574,8.95384 -2.89662,9.24719 -0.132367,0.13825 -0.240668,0.43463 -0.240668,0.65863 0,0.37272 -1.909914,5.01549 -4.523572,10.99627 -0.572346,1.30968 -1.038841,2.49925 -1.036654,2.64349 0.0039,0.25868 -1.596348,3.73653 -2.192459,4.76484 -0.168716,0.29104 -0.797804,1.48167 -1.397973,2.64583 -1.963754,3.80916 -4.385532,8.138 -6.586966,11.77396 -3.53339,5.83587 -4.760589,7.92656 -6.289883,10.71563 -10.526455,19.19771 -14.552612,26.47225 -16.733951,30.23524 -1.374734,2.37152 -4.554558,6.14497 -5.178274,6.14497 -0.114338,0 -0.3674,0.14882 -0.562361,0.33072 -2.644428,2.46729 -6.059569,1.12625 -7.92073,-3.11028 -0.383229,-0.87234 -0.841129,-2.18138 -1.017554,-2.90899 -0.505377,-2.08424 -0.643708,-7.78952 -0.291229,-12.01127 0.343702,-4.11662 1.943605,-15.33159 2.532795,-17.75435 0.194641,-0.80037 0.612231,-3.06255 0.927978,-5.02708 0.315747,-1.96454 0.734888,-4.22672 0.931425,-5.02709 0.196537,-0.80036 0.968657,-4.84849 1.715823,-8.99583 0.747167,-4.14735 1.716916,-8.96938 2.155,-10.71563 0.974494,-3.88444 1.041555,-5.44936 0.294791,-6.87916 -0.874562,-1.67449 -2.950447,-3.3847 -5.097039,-4.19917 -1.152243,-0.43719 -1.318566,-0.42997 -5.159375,0.22405 -5.728656,0.97549 -7.41317,1.31764 -9.789584,1.98845 -1.164166,0.32862 -2.592916,0.69278 -3.175,0.80926 -2.407224,0.48169 -11.203142,4.16861 -13.890625,5.82243 -0.218281,0.13432 -0.848986,0.48889 -1.401566,0.78792 -2.940875,1.59147 -6.61949,5.18703 -7.68908,7.51548 -1.3532,2.94585 -1.36112,2.99198 -1.34351,7.82137 0.0207,5.68593 0.72111,9.62294 2.49457,14.02292 0.26395,0.65484 0.85624,2.20265 1.3162,3.43958 1.55409,4.17923 1.945206,5.14957 3.785921,9.39271 1.010055,2.32833 2.345955,5.42396 2.968665,6.87916 1.713392,4.00402 2.788266,6.2752 3.334024,7.04471 0.270988,0.38208 1.369279,2.58474 2.440648,4.89479 1.071368,2.31005 2.87687,5.92649 4.012226,8.03655 1.135356,2.11005 2.924201,5.4438 3.975211,7.40833 3.380123,6.31807 4.203731,7.71863 7.420607,12.61888 4.800587,7.3127 6.816765,10.54974 9.830218,15.78276 0.405987,0.70502 1.189419,1.99635 1.74096,2.86962 0.551541,0.87328 2.142953,3.74925 3.536471,6.39107 1.393518,2.64181 2.867087,5.33907 3.274598,5.99392 0.849814,1.3656 6.605921,13.78024 6.605921,14.24751 0,0.36382 2.079714,5.28336 3.007642,7.11454 0.35359,0.69778 0.783713,1.80247 0.955828,2.45488 0.172115,0.65241 0.504422,1.48385 0.73846,1.84765 0.234038,0.3638 0.685651,1.55443 1.003583,2.64584 0.317933,1.0914 0.777306,2.44069 1.02083,2.99841 l 0.442771,1.01404 -0.607994,-0.18898 c -0.690692,-0.21469 -3.923942,-1.88137 -5.899662,-3.04116 -0.727604,-0.42712 -1.776665,-1.02212 -2.331246,-1.32223 -1.178358,-0.63765 -3.06317,-1.86583 -5.473962,-3.56692 -0.945886,-0.66743 -2.374636,-1.64526 -3.175,-2.17295 -2.167292,-1.42892 -11.831037,-8.70079 -13.420975,-10.09915 -0.760338,-0.66872 -2.096444,-1.81117 -2.969124,-2.53877 -0.87268,-0.72761 -2.274263,-1.96637 -3.114628,-2.75281 -0.840364,-0.78643 -2.31353,-2.0567 -3.273701,-2.8228 -5.136948,-4.09869 -27.206242,-25.92772 -36.620532,-36.22186 -3.05594,-3.34154 -6.86881,-7.44848 -8.47305,-9.12653 -1.60424,-1.67805 -4.44395,-4.87504 -6.31046,-7.10441 -1.86651,-2.22938 -3.54284,-4.11066 -3.72517,-4.18062 -0.18233,-0.07 -0.96671,-0.89508 -1.74306,-1.83357 -0.77635,-0.9385 -1.49528,-1.70636 -1.59763,-1.70636 -0.36997,0 -3.89407,4.42535 -5.58352,7.01146 -1.76542,2.70238 -3.78253,6.40719 -4.39315,8.06888 -0.83891,2.28292 -2.26298,6.5663 -2.46331,7.40924 -0.12104,0.50932 -0.46842,1.81901 -0.77195,2.91042 -1.19843,4.30925 -2.08677,13.3852 -2.09763,21.43125 -0.007,5.28861 0.19056,8.57758 1.0338,17.19792 0.2921,2.98604 1.47539,10.65048 2.10369,13.62604 2.10253,9.95729 3.33124,14.80463 5.90191,23.28333 0.88241,2.91042 1.82226,6.1251 2.08856,7.14375 0.44807,1.71393 2.87055,8.91947 4.13628,12.30313 2.00186,5.35152 7.23934,15.80891 9.21223,18.39354 0.92803,1.21579 1.5318,2.24261 1.39296,2.36901 -0.0482,0.0439 -1.49396,-0.72644 -3.21287,-1.71176 z M 80.189927,284.92692 c 3.462828,-0.74233 5.371654,-1.25316 6.739936,-1.80368 0.731421,-0.29428 1.806106,-0.64589 2.388189,-0.78135 0.582084,-0.13547 1.35599,-0.44345 1.719792,-0.6844 0.363802,-0.24096 1.67349,-0.95971 2.910417,-1.59722 1.236927,-0.63752 2.436927,-1.32668 2.666667,-1.53147 0.229739,-0.20479 0.539004,-0.37235 0.687255,-0.37235 0.352437,0 4.379697,-3.02795 7.229407,-5.43552 3.64593,-3.08026 7.94277,-7.91952 9.96556,-11.22357 1.64658,-2.68954 3.62395,-6.31857 4.09589,-7.51712 0.29369,-0.74585 0.91446,-2.01093 1.3795,-2.81129 0.46504,-0.80037 1.04734,-1.82525 1.29401,-2.27753 0.61167,-1.12153 2.87605,-7.16159 3.11379,-8.3058 0.10583,-0.50933 0.44404,-1.84058 0.75159,-2.95835 1.36538,-4.96242 1.91567,-16.12097 1.13936,-23.10311 -0.37495,-3.37224 -2.07866,-11.99198 -2.98085,-15.08125 -1.50108,-5.14002 -3.15374,-9.95059 -3.97312,-11.56498 -0.27402,-0.53991 -0.49823,-1.1529 -0.49823,-1.3622 0,-0.2093 -0.35718,-1.05957 -0.79375,-1.88949 -0.43656,-0.82992 -0.79375,-1.61286 -0.79375,-1.73986 0,-0.2447 -2.79366,-6.26029 -3.73831,-8.04972 -0.30729,-0.58209 -1.15137,-2.18943 -1.87573,-3.57188 -2.28004,-4.35144 -4.88407,-8.76168 -7.91442,-13.404 -0.49023,-0.751 -1.53903,-2.39712 -2.33066,-3.65804 l -1.439325,-2.29257 -0.941921,0.1688 c -0.518057,0.0928 -2.31114,0.64838 -3.98463,1.23454 -1.673489,0.58617 -3.638021,1.2305 -4.365625,1.43185 -0.727604,0.20135 -2.513542,0.85974 -3.96875,1.46309 -1.455208,0.60334 -3.300677,1.36331 -4.101042,1.68883 -0.800364,0.32551 -3.702202,1.62885 -6.448527,2.8963 -6.670611,3.07854 -10.985498,5.50638 -17.363973,9.7701 -0.363802,0.24319 -1.137708,0.75702 -1.719791,1.14184 -0.582084,0.38482 -1.653646,1.19943 -2.38125,1.81023 -0.727605,0.6108 -1.530253,1.22157 -1.783664,1.35726 -1.664986,0.89155 -9.721004,8.94312 -12.996299,12.98912 -5.681406,7.01829 -10.116731,15.33852 -12.943535,24.28078 -3.270755,10.34665 -4.863956,22.83457 -4.185665,32.80833 0.158344,2.32833 0.415872,5.00724 0.572283,5.95313 0.481252,2.91033 2.454192,9.84716 3.050671,10.72612 0.310607,0.45771 1.020432,1.65462 1.577389,2.6598 1.793056,3.23609 5.38628,7.39527 8.686504,10.05469 1.642318,1.32343 3.333103,2.58643 3.757299,2.80668 3.796056,1.97092 5.206465,2.60645 9.105641,4.10298 4.583024,1.759 5.827732,2.11885 11.377084,3.28913 4.131577,0.8713 5.684698,0.99106 11.641667,0.8977 3.922062,-0.0615 6.304755,-0.22125 7.672916,-0.51455 z M -114.6251,154.69817 c 1.42276,-0.85 2.66912,-1.38371 5.77023,-2.47089 1.16417,-0.40813 2.41433,-0.86153 2.77813,-1.00755 0.7016,-0.2816 4.3656,-1.34213 7.011458,-2.02945 0.873125,-0.22681 2.837656,-0.65227 4.365625,-0.94546 1.527969,-0.29319 3.552031,-0.70683 4.497917,-0.9192 2.440909,-0.54804 20.189604,-2.78375 22.099389,-2.78375 0.190869,0 0.6066,-0.41999 0.923846,-0.9333 0.442885,-0.71661 0.544169,-1.1927 0.436225,-2.05052 -0.28288,-2.24803 -1.447898,-8.04937 -2.004321,-9.98077 -0.314428,-1.0914 -0.746089,-2.59015 -0.959247,-3.33054 -0.213157,-0.7404 -0.387559,-1.51377 -0.387559,-1.7186 0,-0.51759 -2.852505,-9.13449 -3.452367,-10.42898 -0.269736,-0.58209 -0.868478,-1.95131 -1.330538,-3.04271 -0.864625,-2.04228 -3.624793,-7.31574 -5.054699,-9.65729 -1.025825,-1.67985 -3.907949,-5.175006 -5.634212,-6.832621 -1.567801,-1.505456 -4.233109,-3.618424 -4.564297,-3.618424 -0.127906,0 -0.702497,-0.33691 -1.276868,-0.74869 -1.137081,-0.815199 -3.528561,-1.660008 -6.156947,-2.174991 -2.388283,-0.467938 -5.958085,-0.16925 -8.027625,0.671679 -0.89944,0.365476 -1.7387,0.664502 -1.86503,0.664502 -0.46101,0 -3.96226,2.677311 -5.47474,4.186386 -1.04622,1.043862 -2.92756,3.735226 -3.54689,5.074029 -0.67643,1.46224 -1.70025,4.98737 -2.03636,7.01146 -0.16915,1.01865 -0.40245,2.32833 -0.51843,2.91042 -1.05259,5.28251 -1.65803,13.24456 -1.80068,23.68021 -0.17209,12.58976 0.38371,18.50922 1.92797,20.53386 0.68056,0.89226 0.80877,0.94916 1.86919,0.82963 0.62618,-0.0706 1.71105,-0.47038 2.41083,-0.88844 z m -111.54437,69.00662 c -0.14031,-0.26216 -0.56654,-1.58434 -0.94719,-2.93817 -0.38064,-1.35384 -1.09712,-3.66942 -1.59218,-5.14574 -0.49505,-1.47632 -1.20863,-3.93438 -1.58573,-5.46235 -0.3771,-1.52797 -0.8584,-3.22375 -1.06954,-3.76841 -0.4649,-1.19922 -2.91399,-10.96801 -3.16785,-12.63575 -0.0997,-0.65485 -0.52176,-2.50032 -0.93797,-4.10105 -0.41621,-1.60073 -0.8889,-3.92244 -1.05044,-5.15937 -0.16153,-1.23693 -0.51789,-3.14193 -0.7919,-4.23333 -0.27402,-1.09141 -0.6834,-3.41313 -0.90973,-5.15938 -0.22634,-1.74625 -0.57916,-4.00844 -0.78405,-5.02708 -0.43335,-2.15457 -1.34081,-10.06679 -1.74484,-15.21354 -0.15422,-1.96454 -0.3949,-4.70297 -0.53485,-6.08542 -0.55736,-5.50598 -0.85412,-16.24839 -0.69437,-25.13542 0.14707,-8.1811 0.40795,-13.21868 1.21262,-23.41562 0.29637,-3.755608 2.3061,-20.123128 2.6615,-21.675638 0.13579,-0.593193 0.42726,-2.090563 0.64769,-3.32749 0.22044,-1.236927 0.65512,-3.677709 0.96595,-5.423959 0.64078,-3.599864 4.90446,-20.662127 6.11578,-24.473958 2.47449,-7.786763 3.54162,-10.99377 4.46884,-13.429983 0.56819,-1.492898 1.03307,-2.848463 1.03307,-3.012369 0,-0.501158 5.55481,-14.251215 6.61161,-16.365981 0.54539,-1.091407 1.08161,-2.282032 1.19158,-2.6458336 0.33366,-1.1038364 7.59721,-15.5512166 9.3115,-18.5208334 0.88207,-1.527969 2.02233,-3.611562 2.53392,-4.630208 0.5116,-1.018646 1.55653,-2.864115 2.32208,-4.101042 0.76556,-1.236927 1.96595,-3.234659 2.66756,-4.439405 0.7016,-1.204746 1.55869,-2.573964 1.90465,-3.042708 0.34596,-0.468744 1.26544,-1.983356 2.04328,-3.365804 0.77784,-1.382448 2.62319,-4.239948 4.10077,-6.35 1.47758,-2.110052 2.83727,-4.134114 3.02155,-4.497916 0.18427,-0.363802 1.31007,-1.971146 2.50178,-3.571875 6.85828,-9.212202 9.13176,-12.123916 12.96959,-16.610539 2.33769,-2.732879 4.78612,-5.602617 5.44097,-6.377194 6.03185,-7.13473 24.29488,-25.017305 30.82395,-30.181831 0.72761,-0.575538 2.27542,-1.885177 3.43959,-2.910309 1.16416,-1.025133 2.43245,-2.102004 2.81841,-2.393044 0.38596,-0.29104 1.33846,-1.03079 2.11667,-1.64389 5.61719,-4.42544 11.43448,-8.73394 13.32117,-9.86618 0.58208,-0.34932 2.0899,-1.4148 3.3507,-2.36774 2.53443,-1.91556 4.80953,-3.43717 6.94219,-4.64302 0.77211,-0.43657 1.80816,-1.10164 2.30234,-1.47794 0.96943,-0.73818 14.06716,-8.61813 16.244351,-9.77304 7.929845,-4.20646 18.613156,-9.5735 19.737323,-9.91557 0.349577,-0.10637 1.4095,-0.59635 2.355386,-1.08884 1.621538,-0.84428 4.746074,-2.13408 9.260416,-3.82268 1.091407,-0.40825 2.996407,-1.17532 4.233334,-1.7046 4.627486,-1.98011 17.620126,-6.4745 22.621875,-7.82531 5.051614,-1.36428 8.461017,-2.26591 15.213542,-4.02327 1.382448,-0.35978 3.6446352,-0.8996 5.0270831,-1.1996 1.3824479,-0.3 3.6446354,-0.79008 5.0270834,-1.08907 1.3824479,-0.29899 3.75778338,-0.7347 5.2785233,-0.96824 1.5207399,-0.23354 3.0205386,-0.52178 3.3328861,-0.64054 0.9924408,-0.37732 10.9617231,-1.79549 14.6719241,-2.08713 11.795332,-0.92717 43.79052,-1.26 56.488542,-0.58761 5.709544,0.30233 19.370887,1.33399 24.870831,1.87816 4.83787,0.47867 20.96121,2.85178 25.26771,3.71903 8.40666,1.69295 20.784,4.72156 25.92917,6.34461 2.25557,0.71152 5.88698,1.84981 8.06979,2.52952 2.18281,0.67971 4.50453,1.50271 5.15937,1.82889 0.65485,0.32617 2.20266,0.92129 3.43959,1.32247 1.23693,0.40119 3.73724,1.37778 5.55625,2.17021 1.81901,0.79243 3.84307,1.66363 4.49791,1.93602 6.53763,2.71933 34.0921,16.11132 44.77318,21.7606 l 3.63046,1.92018 1.49543,3.70416 c 0.82248,2.0373 1.71156,4.53761 1.97572,5.55625 0.26416,1.01865 0.67898,2.50693 0.92182,3.3073 0.24284,0.80036 0.71842,2.64583 1.05685,4.10104 0.33842,1.45521 0.74074,3.18161 0.89403,3.836455 0.15329,0.654844 0.45322,2.083594 0.66651,3.175 1.48688,7.608402 2.04981,10.573273 2.53693,13.361458 0.30507,1.74625 0.71769,4.067969 0.91691,5.159375 1.08229,5.929152 1.57265,9.206234 2.67234,17.859375 1.27846,10.059784 1.36001,10.904073 2.08299,21.563542 0.4081,6.017058 0.41903,7.362211 0.10107,12.435417 l -0.35653,5.688541 -1.18603,-1.5875 c -2.71977,-3.640397 -10.25644,-11.874885 -14.1598,-15.470852 -0.87313,-0.804364 -3.25947,-3.069825 -5.30299,-5.034356 -4.46581,-4.293182 -8.69238,-8.122193 -10.95207,-9.921875 -0.91358,-0.727604 -2.45196,-1.986276 -3.41862,-2.797048 -1.86933,-1.567868 -4.78783,-3.80333 -7.67119,-5.875833 -0.96761,-0.695501 -2.2058,-1.58847 -2.75153,-1.984375 -2.67241,-1.938725 -7.8681,-5.376812 -10.63839,-7.039629 -0.75499,-0.453172 -1.7649,-1.062073 -2.24424,-1.353115 -3.63498,-2.207055 -5.50672,-3.298878 -7.68868,-4.484971 -4.55665,-2.476949 -15.8571,-8.105902 -18.12396,-9.027861 -6.07893,-2.472383 -11.6533,-4.62664 -12.59783,-4.868532 -0.63828,-0.163461 -1.75581,-0.516594 -2.48342,-0.78474 -2.37936,-0.87687 -4.71711,-1.628524 -7.40833,-2.38199 -1.45521,-0.407417 -3.18162,-0.98121 -3.83646,-1.275096 -1.4606,-0.655501 -3.43299,-1.382072 -6.21771,-2.29043 -3.76475,-1.228039 -18.19722,-5.1152 -20.24062,-5.45151 -1.09141,-0.17962 -2.57969,-0.48349 -3.30729,-0.67526 -0.72761,-0.19177 -2.0373,-0.42776 -2.910421,-0.52442 -0.873125,-0.0967 -2.301875,-0.33126 -3.175,-0.52134 -1.539311,-0.3351 -7.826565,-1.14307 -13.229167,-1.70006 -11.74274,-1.21065 -34.747739,-0.96666 -48.154167,0.51071 -7.051029,0.77702 -17.979612,2.21605 -20.108333,2.64778 -1.309688,0.26562 -3.095625,0.56313 -3.96875,0.66113 -0.8731251,0.098 -2.5400001,0.39782 -3.7041668,0.66626 -1.1641667,0.26843 -3.5454167,0.8068 -5.2916667,1.19636 -1.74625002,0.389566 -4.4357782,1.048727 -5.9767293,1.464804 -1.5409512,0.416078 -3.5650137,0.930242 -4.4979167,1.142587 -1.6776515,0.381863 -3.1626415,0.798812 -8.3107705,2.333464 -4.409166,1.314368 -6.775816,2.067283 -8.995834,2.861894 -1.164166,0.416691 -2.473854,0.838234 -2.910416,0.936762 -1.476174,0.333161 -15.227891,5.755578 -21.034376,8.29403 -9.066073,3.963464 -22.939928,11.309646 -29.236458,15.480654 -1.164167,0.771179 -2.480446,1.58895 -2.925066,1.81727 -1.287996,0.661407 -6.324662,4.064755 -6.719419,4.540408 -0.19752,0.237997 -1.382534,1.10342 -2.633363,1.923162 -2.528754,1.657242 -6.278328,4.474306 -7.698194,5.783672 -0.509323,0.469685 -1.417346,1.193451 -2.017826,1.608368 -1.089,0.752465 -4.7486,3.878999 -7.50717,6.413663 -0.80037,0.735399 -2.40771,2.180194 -3.57188,3.210656 -2.2921,2.02885 -13.07872,13.134094 -14.64235,15.074868 -0.52759,0.654843 -1.8033,2.143125 -2.83491,3.307291 -1.7893,2.019213 -5.16662,6.137053 -6.86441,8.369507 -4.63642,6.0965345 -7.07609,9.5068247 -8.77633,12.2679934 -0.53764,0.873125 -1.52135,2.2913227 -2.18601,3.15155049 -1.34287,1.73797421 -3.85942,5.66144871 -4.9365,7.69636611 -0.38513,0.7276042 -1.2087,2.0968229 -1.83016,3.042708 -3.37505,5.136946 -11.75624,21.36616 -14.18428,27.46624 -0.42337,1.063671 -1.0615,2.509636 -1.41805,3.213255 -0.83682,1.651399 -3.6017,8.599848 -4.37401,10.99238 -0.32882,1.018646 -1.04827,3.10224 -1.59878,4.630209 -0.55051,1.527968 -1.25149,3.671093 -1.55772,4.7625 -0.30623,1.091406 -0.74445,2.520156 -0.97382,3.175 -0.38312,1.093809 -1.41282,4.611927 -2.40063,8.202083 -0.45839,1.665995 -1.33224,5.423557 -2.46124,10.583333 -0.42985,1.964532 -1.01675,4.643438 -1.30422,5.953125 -0.28748,1.309688 -0.59448,3.095625 -0.68223,3.96875 -0.0877,0.873125 -0.38347,3.075782 -0.65715,4.894792 -1.10665,7.355415 -1.31669,9.017275 -1.58839,12.567705 -0.15591,2.0373 -0.40415,5.13292 -0.55164,6.87917 -0.46735,5.53303 -0.60348,18.13025 -0.27163,25.13542 0.51269,10.82274 0.96889,15.26935 2.67375,26.06146 1.1333,7.17398 1.15742,7.60218 0.4491,7.97257 -0.32041,0.16754 -1.07275,0.73421 -1.67187,1.25925 -0.59913,0.52505 -2.43103,2.0262 -4.0709,3.33588 -2.51575,2.00922 -5.50311,4.71293 -9.64728,8.73125 -3.15029,3.05464 -6.85386,7.33765 -11.67551,13.50221 -5.71102,7.30163 -8.89256,12.03262 -11.61332,17.26915 -0.84672,1.62966 -1.63623,2.96302 -1.75447,2.96302 -0.11823,0 -0.32976,-0.2145 -0.47006,-0.47666 z m 9.81003,-26.35642 c 1.7019,-0.75712 3.76921,-2.85289 4.98651,-5.05516 0.4808,-0.86986 1.04012,-1.77751 1.24291,-2.01701 0.2028,-0.2395 0.74846,-1.0378 1.21257,-1.77401 1.13422,-1.7992 11.33331,-16.54439 14.29068,-20.66055 1.30042,-1.80997 2.53681,-3.70348 2.74752,-4.2078 1.35999,-3.25491 1.47844,-10.1056 0.33011,-19.09197 -0.28736,-2.24875 -1.71679,-7.80111 -2.15555,-8.37285 -0.12792,-0.16668 -0.66873,-0.38487 -1.20182,-0.48488 -0.53309,-0.10001 -1.21018,-0.35059 -1.50465,-0.55685 -0.29448,-0.20625 -0.69043,-0.37501 -0.8799,-0.37501 -0.64557,0 -3.76089,-2.15615 -4.75966,-3.29422 -0.5477,-0.62409 -1.33644,-2.01343 -1.75275,-3.08743 -0.91335,-2.35622 -0.86078,-4.14727 0.18905,-6.4404 1.07226,-2.34213 3.99181,-4.82796 6.52101,-5.55227 2.91834,-0.83575 3.19766,-1.11977 4.61201,-4.68972 1.4366,-3.62614 2.39526,-7.56626 3.20772,-13.183875 0.47282,-3.269164 0.69299,-15.435013 0.31172,-17.224066 -0.3414,-1.602002 -2.47468,-3.585831 -8.36506,-7.779059 -0.61326,-0.436562 -1.54232,-1.121172 -2.06458,-1.521354 -0.52227,-0.400182 -1.0733,-0.727604 -1.22452,-0.727604 -0.15122,0 -1.05758,-0.516252 -2.01414,-1.147227 -2.24755,-1.482561 -6.8846,-4.07558 -9.27981,-5.189244 -0.21829,-0.101491 -0.93266,-0.459283 -1.5875,-0.795094 -0.65485,-0.33581 -1.48829,-0.762666 -1.85209,-0.948568 -1.03938,-0.531123 -3.80291,-1.180284 -5.02455,-1.180284 -1.73074,0 -3.88813,0.741434 -4.87349,1.674877 -1.04356,0.988593 -5.02802,8.526386 -6.24741,11.818873 -1.92792,5.205567 -4.22746,13.482276 -4.22746,15.215831 0,0.344106 -0.2373,1.615456 -0.52732,2.825221 -0.29002,1.209765 -0.52853,2.794886 -0.53001,3.52249 -0.001,0.727604 -0.17174,2.334948 -0.37835,3.571873 -0.79909,4.78401 -1.02293,10.70524 -0.85573,22.6366 0.0896,6.39482 0.27329,12.57944 0.40817,13.74361 0.13488,1.16417 0.37864,3.66448 0.5417,5.55625 0.5021,5.82529 3.60383,26.39578 4.40844,29.23646 0.18548,0.65484 0.46498,1.905 0.6211,2.77812 0.32571,1.82148 3.79253,13.16503 4.56871,14.94896 1.07748,2.47643 2.64008,5.38352 3.40602,6.33664 0.68214,0.84883 1.86791,1.62036 3.41852,2.2243 0.70447,0.27438 2.83755,-0.0911 4.28188,-0.7336 z m -6.30156,-59.58848 c -0.79907,-0.17824 -2.67655,-1.84782 -3.18884,-2.83573 -0.67508,-1.30184 -1.63804,-5.07988 -1.82324,-7.15325 -0.32473,-3.63543 0.59933,-9.68858 1.67638,-10.98137 l 0.46058,-0.55283 1.15047,0.78183 c 2.8045,1.90588 6.23258,2.42172 8.0204,1.20686 l 0.95933,-0.65188 0.27617,0.71803 c 0.55485,1.44257 0.60703,2.49742 0.30026,6.06972 -0.34302,3.99452 -1.25902,8.16096 -2.25885,10.27441 -0.35341,0.74706 -0.64257,1.55241 -0.64257,1.78968 0,0.23726 -0.2934,0.62363 -0.652,0.8586 -0.65264,0.42762 -3.21616,0.71282 -4.27809,0.47593 z m 36.94468,-77.288532 c 0.97915,-0.539269 2.49059,-1.735144 3.50962,-2.776878 1.44024,-1.472311 2.05202,-2.381204 3.1321,-4.653139 0.73824,-1.552889 1.49985,-3.299684 1.69247,-3.881768 0.19262,-0.582083 1.0902,-2.784739 1.99464,-4.894791 0.90443,-2.110052 1.9116,-4.550834 2.23816,-5.423959 0.32656,-0.873125 1.45169,-3.611562 2.50027,-6.085416 2.68026,-6.323324 3.01002,-7.350299 2.86033,-8.90808 -0.14581,-1.517465 -1.17159,-2.781612 -2.92784,-3.608188 l -1.05362,-0.495885 3.89866,-2.131147 3.89866,-2.131147 2.27128,-4.459651 c 1.2492,-2.452809 2.90562,-5.7465155 3.68092,-7.3193482 0.77531,-1.5728328 1.97494,-3.72014315 2.66585,-4.7718009 0.69091,-1.0516577 1.79199,-2.8979283 2.44683,-4.1028234 0.65484,-1.2048952 2.94618,-4.6304254 5.09185,-7.6122895 2.14567,-2.981864 4.03808,-5.682793 4.20535,-6.002064 0.16727,-0.319271 0.86465,-1.294868 1.54973,-2.167993 1.22505,-1.561285 1.52507,-2.051189 2.63775,-4.307074 0.57687,-1.169559 0.75369,-3.237777 0.41043,-4.80064 -0.14437,-0.657281 -0.46166,-0.969879 -1.53817,-1.515387 -1.20923,-0.612762 -1.55239,-0.669057 -3.16488,-0.519193 -1.12193,0.104272 -2.43171,0.452842 -3.44981,0.918091 -1.61082,0.736111 -6.03353,3.606865 -7.85892,5.101169 -0.50932,0.416945 -1.2237,0.996186 -1.5875,1.287203 -1.60265,1.282017 -3.83371,3.094908 -7.351,5.973203 -2.07852,1.700912 -3.83704,3.034658 -3.90782,2.96388 -0.16766,-0.167668 0.60588,-3.496446 1.07144,-4.610687 0.66572,-1.5933 1.5131,-6.290447 1.52044,-8.428065 0.008,-2.452329 -0.69065,-4.427235 -2.52141,-7.123159 -2.25844,-3.325699 -4.59216,-5.043849 -7.72951,-5.690684 -1.44019,-0.296928 -1.71645,-0.276566 -2.97428,0.219224 -1.97434,0.77821 -3.15385,1.581541 -4.93685,3.362343 -4.56866,4.563006 -7.84614,10.075303 -9.42217,15.846859 -0.11922,0.436563 -0.53425,1.984375 -0.9223,3.439584 l -0.70555,2.645833 0.18057,8.3002064 c 0.13076,6.0108712 0.10028,8.25059144 -0.1105,8.12032259 -0.16008,-0.0989361 -0.29106,-0.32493747 -0.29106,-0.5022253 0,-0.17728783 -0.32742,-0.62666732 -0.7276,-0.99862109 -0.40018,-0.3719538 -1.18319,-1.1805065 -1.74002,-1.7967839 -1.21208,-1.341479 -2.9454,-2.1426903 -4.63545,-2.1426903 -1.67511,0 -3.55306,1.2776369 -5.13362,3.4925836 -1.1673,1.63583584 -5.88665,10.7059948 -6.654,12.788411 -0.21265,0.577067 -0.99464,2.477964 -1.73775,4.224214 -1.82462,4.287645 -3.55553,9.466072 -4.28926,12.832291 -0.49365,2.264796 -0.60585,3.584786 -0.60725,7.14375 -0.001,3.831121 0.0738,4.608582 0.61496,6.35 0.33917,1.091407 0.90904,2.370724 1.26639,2.842928 0.79538,1.051007 3.52069,3.229523 6.1811,4.94095 1.09141,0.702095 2.28203,1.495467 2.64584,1.76305 0.3638,0.267583 1.55442,0.983312 2.64583,1.590509 1.09141,0.607196 2.52016,1.484017 3.175,1.948489 1.64163,1.164389 3.12365,2.000657 8.33437,4.702871 l 4.49792,2.332563 1.71979,-0.160888 c 1.27288,-0.119079 2.16671,-0.407028 3.43959,-1.108062 z m 32.42901,-98.775481 c 1.97753,-0.357086 4.9862,-1.421749 5.94292,-2.102996 0.40201,-0.286254 0.95176,-0.61054 1.22168,-0.720635 1.61156,-0.657327 2.97171,-2.070158 7.92748,-8.234513 l 5.39557,-6.711423 -0.0201,1.155173 c -0.011,0.635346 -0.11466,2.583924 -0.23028,4.330174 -0.26684,4.030398 -0.01,5.46568 1.133,6.327912 2.76666,2.087324 8.19154,1.42083 12.7456,-1.565909 0.87191,-0.571833 2.85867,-2.115341 4.41503,-3.430017 1.55636,-1.314676 3.40038,-2.807038 4.09782,-3.316361 0.69744,-0.509323 6.38921,-5.097863 12.648381,-10.196755 6.259167,-5.098892 12.035147,-9.754258 12.835512,-10.345257 3.529993,-2.606589 5.495128,-5.358451 5.761655,-8.068289 0.16054,-1.632244 -0.27731,-2.846304 -1.546549,-4.288235 -1.399328,-1.58972 -2.849465,-2.356608 -5.833527,-3.084988 -1.365442,-0.333291 -3.250288,-0.989031 -4.188548,-1.457199 l -1.705927,-0.851215 1.044469,-0.661593 c 10.545713,-6.679923 12.868207,-8.219065 13.720572,-9.092771 2.691166,-2.75854 3.789901,-5.51751 4.046947,-10.16203 0.124183,-2.24385 0.06283,-2.74018 -0.571773,-4.62583 -0.390984,-1.16176 -0.805037,-2.23332 -0.920117,-2.38125 -0.11508,-0.14793 -0.283848,-0.58202 -0.375041,-0.96465 -0.272178,-1.14201 -2.390621,-3.26874 -3.93427,-3.94965 -1.071153,-0.4725 -1.859536,-0.61317 -3.381224,-0.60331 -1.931513,0.0125 -3.0579,0.30658 -7.9375,2.07222 -2.258818,0.81733 -7.813075,3.68171 -10.58333,5.45791 -1.52797,0.97969 -3.31391,2.1209 -3.96875,2.53604 -2.35015,1.48986 -9.94834,6.7243 -11.2448,7.74659 -0.7276,0.57374 -1.79916,1.4084 -2.38125,1.85479 -2.77291,2.12653 -3.52227,2.69811 -4.59019,3.50122 -0.63284,0.475909 -2.12112,1.703657 -3.30729,2.728323 -1.18618,1.024666 -2.75199,2.314215 -3.4796,2.865664 -0.7276,0.551448 -1.97776,1.593107 -2.77812,2.314797 -8.95017,8.07038 -11.84151,10.76336 -15.4475,14.387759 -4.06729,4.088043 -11.44454,12.268891 -12.28757,13.626042 -0.22599,0.363802 -0.83078,1.189112 -1.34398,1.834023 -1.0214,1.283523 -1.51082,2.094454 -2.51124,4.160922 -0.36338,0.750605 -0.7861,1.442241 -0.93937,1.536969 -0.15327,0.09473 -0.27868,0.388943 -0.27868,0.653811 0,0.264869 -0.30732,1.152856 -0.68293,1.973305 -0.51543,1.125837 -0.71875,2.091965 -0.82894,3.938892 -0.16566,2.776779 0.12251,4.484425 1.14257,6.770681 0.70808,1.587003 2.07673,2.895003 4.24554,4.057418 2.12246,1.137569 5.85642,1.547116 8.97361,0.984241 z m 381.58167,-16.88268 c 1.45256,-0.741037 1.79616,-1.342005 2.13813,-3.739579 0.22168,-1.554226 0.19847,-2.622324 -0.10638,-4.894791 -0.21446,-1.598715 -0.51792,-4.15691 -0.67436,-5.684879 -0.9327,-9.109736 -3.1979,-28.767517 -3.52141,-30.559378 -0.21018,-1.16416 -0.45664,-3.06916 -0.54769,-4.23333 -0.24863,-3.17921 -1.0708,-6.11552 -2.06822,-7.3865 -2.47958,-3.15965 -3.49585,-3.74917 -25.35929,-14.71047 -6.64263,-3.3303 -13.01247,-6.57224 -14.15521,-7.20432 -2.98104,-1.64889 -5.60701,-2.44894 -8.03084,-2.44675 -3.07848,0.003 -4.46347,0.6278 -7.03055,3.17275 -1.98851,1.97137 -2.63018,2.91678 -4.17537,6.15185 -0.2954,0.61847 -0.61147,1.12448 -0.70236,1.12448 -0.0909,0 -2.52024,-3.74423 -5.39855,-8.3205 -3.07196,-4.88417 -5.52336,-8.50735 -5.93563,-8.7729 -0.38628,-0.24882 -0.79074,-0.6001 -0.89881,-0.78064 -0.54046,-0.90288 -5.94771,-4.1412 -9.5931,-5.74516 -5.65365,-2.48759 -16.88235,-5.71024 -22.42344,-6.43557 -7.4063,-0.96948 -8.99638,-1.16411 -11.70781,-1.43309 -1.60073,-0.1588 -4.10104,-0.43157 -5.55625,-0.60616 -3.573402,-0.42872 -14.702253,-0.4109 -17.727084,0.0284 -4.629082,0.67226 -9.327472,1.92974 -10.710898,2.86667 -0.506724,0.34318 -1.045944,0.62396 -1.198269,0.62396 -0.335448,0 -3.27538,2.99308 -4.028215,4.10104 -0.296635,0.43657 -0.692687,1.32953 -0.880114,1.98438 -0.187428,0.65484 -0.427091,1.30969 -0.532586,1.45521 -0.285517,0.39384 -0.943426,3.28271 -1.596788,7.01146 -0.427283,2.43851 -0.577699,4.34982 -0.572608,7.27604 0.0061,3.53031 0.08555,4.23164 0.718793,6.34852 0.391539,1.30887 1.078982,3.02138 1.52765,3.80557 0.832418,1.45492 4.692769,5.58862 5.219057,5.58862 0.159794,0 0.743117,0.2857 1.296274,0.63489 0.553156,0.34919 1.592587,0.83471 2.309846,1.07892 1.15691,0.39391 18.454857,2.96148 29.430132,4.36839 4.26306,0.54647 19.74516,3.34984 20.42467,3.69832 0.21847,0.11204 1.05207,0.35162 1.85243,0.5324 0.80037,0.18077 2.15948,0.55369 3.02026,0.82871 2.57209,0.82178 4.0095,0.5902 5.36209,-0.86389 0.49817,-0.53556 3.84614,-7.4437 4.62838,-9.55014 0.14861,-0.40018 0.35885,-0.7276 0.4672,-0.7276 0.10835,0 0.53197,1.10132 0.94139,2.44739 2.35004,7.72637 4.28351,10.91335 8.54606,14.08667 2.04172,1.519987 3.80372,2.490756 9.71066,5.350062 2.55006,1.234376 5.77736,3.017843 6.35,3.50913 0.29104,0.249693 1.83886,1.138704 3.43959,1.97558 1.60073,0.836876 3.94475,2.194761 5.20894,3.017524 1.26419,0.822762 2.91557,1.853118 3.66974,2.289681 0.75417,0.436562 1.86296,1.077764 2.46397,1.424894 0.60102,0.347129 2.58104,1.607718 4.40005,2.80131 1.81902,1.193591 4.20027,2.738019 5.29167,3.432061 1.09141,0.694041 2.46063,1.610312 3.04271,2.036156 1.29345,0.94627 2.27373,1.644375 4.13175,2.94242 0.78348,0.547346 1.85046,1.321253 2.37107,1.719792 0.52061,0.398539 1.8303,1.396614 2.91042,2.217943 1.08011,0.82133 2.80367,2.25008 3.83011,3.175 1.02645,0.924921 2.72309,2.39018 3.77032,3.256133 1.04722,0.865953 1.90404,1.656633 1.90404,1.757068 0,0.335197 5.40699,3.325667 6.61458,3.658355 0.65485,0.180408 1.78594,0.494138 2.51354,0.697177 1.77523,0.495379 4.23717,0.32942 5.62631,-0.379269 z m -274.575267,-35.3318 c 5.285277,-1.124373 9.510862,-3.338565 11.3185,-5.930857 3.08395,-4.42262 3.597798,-7.88205 2.010852,-13.53784 -0.224573,-0.80037 -0.519972,-1.6338 -0.656444,-1.85208 -0.136471,-0.21829 -0.430803,-0.7955 -0.654071,-1.28271 -0.223268,-0.4872 -1.381733,-1.86419 -2.574368,-3.05997 -3.11289,-3.12109 -5.838754,-4.32266 -10.367898,-4.57017 -3.873432,-0.21169 -6.758604,0.35267 -9.852435,1.92718 -4.198485,2.13669 -6.826064,5.45226 -8.033425,10.13684 -0.602676,2.3384 -0.632648,3.80958 -0.131024,6.43133 0.552232,2.886254 1.797223,5.075673 4.26981,7.508809 1.189265,1.17029 5.191068,3.698771 6.718419,4.244935 1.255262,0.448868 5.811064,0.440007 7.952084,-0.01547 z m 41.9364588,-18.670257 c 2.4738542,-0.14481 6.8791667,-0.39054 9.7895834,-0.54607 25.1668188,-1.34484 31.6185868,-2.07312 36.9292328,-4.16858 0.902046,-0.35593 3.792912,-2.23274 5.084897,-3.30122 2.580001,-2.13368 7.595246,-7.68616 7.595246,-8.40885 0,-0.15712 0.369309,-0.82244 0.820688,-1.4785 2.133831,-3.10142 2.835599,-7.07097 2.367697,-13.39286 -0.153299,-2.07125 -0.40885,-4.24215 -0.567892,-4.82424 -1.002435,-3.66886 -2.659258,-6.61646 -4.748441,-8.44778 -3.763083,-3.29861 -8.995545,-4.62494 -18.307881,-4.6407 -5.321921,-0.009 -14.311486,0.55657 -19.251672,1.21123 -5.5126211,0.7305 -6.1849071,0.84296 -9.7895831,1.63748 -1.9645313,0.43302 -4.2267188,0.87089 -5.02708341,0.97306 -0.80036459,0.10217 -2.82442709,0.52246 -4.49791669,0.93398 -1.6734896,0.41152 -4.0547396,0.94284 -5.2916667,1.18072 -1.2369271,0.23788 -3.3800521,0.83169 -4.7625001,1.31957 -1.382448,0.48789 -2.989792,1.03377 -3.571875,1.21307 -0.582083,0.17929 -1.619922,0.60739 -2.306308,0.95133 -0.686387,0.34393 -1.415462,0.62534 -1.620167,0.62534 -0.615592,0 -3.099221,1.8726 -4.93786,3.72304 -2.983004,3.00215 -4.579662,7.08105 -4.912154,12.54883 -0.15364,2.52658 0.03549,4.2865 0.92571,8.61412 0.27374,1.33073 1.757776,5.21675 2.1929,5.74222 0.151853,0.18338 0.528403,0.80086 0.836779,1.37219 0.851042,1.57671 3.406264,4.3307 4.978813,5.36611 2.713656,1.78674 3.764702,2.02699 8.943329,2.04432 2.546614,0.009 6.6542706,-0.103 9.1281248,-0.24781 z m 28.0458332,-17.65786 c -0.887606,-0.21687 -3.411128,-1.41847 -3.902604,-1.85826 -1.1955,-1.06979 -0.18224,-3.88593 1.843248,-5.12291 0.550563,-0.33623 1.120085,-0.75117 1.265606,-0.92208 0.23839,-0.27999 2.119529,-0.98489 4.630209,-1.73503 4.534104,-1.35471 11.729301,-1.26329 14.599955,0.18549 2.394725,1.20859 2.668837,2.7489 0.857652,4.81936 -0.666129,0.76148 -1.315685,1.38452 -1.443458,1.38452 -0.127774,0 -0.675547,0.30078 -1.217273,0.6684 -1.141676,0.77477 -5.276512,2.10311 -7.769793,2.49611 -1.717026,0.27063 -7.861801,0.32915 -8.863542,0.0844 z m -76.287102,3.69684 c 3.626581,-1.69281 5.152845,-3.97223 4.909371,-7.33199 -0.208552,-2.87786 -0.878225,-4.55012 -2.458945,-6.14033 -1.494694,-1.50367 -2.873492,-2.06763 -5.772196,-2.36096 -1.730487,-0.17512 -4.285798,0.18858 -5.421631,0.77165 -1.830418,0.93963 -2.882368,1.61804 -3.659232,2.35986 -1.256471,1.19979 -2.240719,3.46287 -2.393117,5.5025 -0.115631,1.54755 -0.04389,1.89782 0.677359,3.30729 1.266238,2.47449 2.333899,3.43738 4.843583,4.36828 1.18945,0.44119 1.926311,0.51343 4.467118,0.43795 2.748601,-0.0816 3.213311,-0.17002 4.80769,-0.91425 z"
       id="path1" /></g></svg>
